<?xml version="1.0" encoding="UTF-8" standalone="no"?>
<svg
   xmlns:dc="http://purl.org/dc/elements/1.1/"
   xmlns:cc="http://creativecommons.org/ns#"
   xmlns:rdf="http://www.w3.org/1999/02/22-rdf-syntax-ns#"
   xmlns:svg="http://www.w3.org/2000/svg"
   xmlns="http://www.w3.org/2000/svg"
   xmlns:sodipodi="http://sodipodi.sourceforge.net/DTD/sodipodi-0.dtd"
   xmlns:inkscape="http://www.inkscape.org/namespaces/inkscape"
   version="1.0"
   width="100.00003mm"
   height="85.060272mm"
   id="svg5937"
   sodipodi:docname="logo_clean.svg"
   inkscape:version="0.92.2 (5c3e80d, 2017-08-06)">
  <sodipodi:namedview
     pagecolor="#ffffff"
     bordercolor="#666666"
     borderopacity="1"
     objecttolerance="10"
     gridtolerance="10"
     guidetolerance="10"
     inkscape:pageopacity="0"
     inkscape:pageshadow="2"
     inkscape:window-width="1182"
     inkscape:window-height="777"
     id="namedview5939"
     showgrid="false"
     fit-margin-top="0"
     fit-margin-left="0"
     fit-margin-right="0"
     fit-margin-bottom="0"
     inkscape:zoom="6.6128674"
     inkscape:cx="197.19974"
     inkscape:cy="41.938988"
     inkscape:window-x="-8"
     inkscape:window-y="-8"
     inkscape:window-maximized="1"
     inkscape:current-layer="svg5937" />
  <metadata
     id="metadata5941">
    <rdf:RDF>
      <cc:Work
         rdf:about="">
        <dc:format>image/svg+xml</dc:format>
        <dc:type
           rdf:resource="http://purl.org/dc/dcmitype/StillImage" />
        <dc:title></dc:title>
      </cc:Work>
    </rdf:RDF>
  </metadata>
  <defs
     id="defs5901">
    <pattern
       id="WMFhbasepattern"
       patternUnits="userSpaceOnUse"
       width="6"
       height="6"
       x="0"
       y="0" />
  </defs>
  <path
     style="fill:#1f1a17;fill-opacity:1;fill-rule:nonzero;stroke:none;stroke-width:2.25358224"
     d="m 140.12599,129.46898 5.18504,-2.9881 5.18504,-2.98811 4.01573,6.95324 4.01551,6.95286 4.01557,6.95297 4.01589,6.95352 4.01548,6.95281 4.01554,6.95292 4.01571,6.95321 4.01583,6.95341 4.01595,6.95362 4.01615,6.95398 4.01588,6.9535 -5.18504,3.01172 -5.18504,3.01173 -4.01573,-6.95539 -4.01551,-6.955 -4.01557,-6.95512 -4.01589,-6.95567 -4.01548,-6.95496 -4.01554,-6.95506 -4.01571,-6.95536 -4.01583,-6.95556 -4.01595,-6.95576 -4.01615,-6.95613 -4.01588,-6.95565 v -0.0236 m 10.37008,-5.97621 -5.18504,2.99992 -5.18504,2.99991 -0.0709,-0.14172 -0.0709,-0.11812 -0.0709,-0.14172 -0.0709,-0.14173 -0.0472,-0.14173 -0.0708,-0.14173 -0.0472,-0.14172 -0.0472,-0.14174 -0.0472,-0.14173 -0.0472,-0.14172 -0.0237,-0.14173 -0.0473,-0.14173 -0.0237,-0.14172 -0.0237,-0.14173 -0.0236,-0.14174 -0.0237,-0.16534 -0.0237,-0.14172 v -0.14174 l -0.0236,-0.14173 v -0.14172 -0.14173 -0.14173 -0.14173 l 0.0236,-0.16534 v -0.14174 l 0.0237,-0.14173 v -0.14172 l 0.0237,-0.14173 0.0236,-0.14173 0.0472,-0.14173 0.0237,-0.14172 0.0472,-0.14173 0.0236,-0.11812 0.0472,-0.14172 0.0472,-0.14173 0.0472,-0.14173 0.0472,-0.1181 0.0473,-0.14173 0.0709,-0.14173 0.0709,-0.11811 0.0472,-0.14173 0.0709,-0.1181 0.0709,-0.11811 0.0709,-0.14173 0.0709,-0.1181 0.0945,-0.11811 0.0709,-0.11811 0.0945,-0.11811 0.0945,-0.11811 0.0945,-0.1181 0.0945,-0.0945 0.0945,-0.1181 0.0945,-0.11811 0.11811,-0.0945 0.0945,-0.0945 0.11812,-0.11811 0.1181,-0.0945 0.11812,-0.0945 0.1181,-0.0945 0.11812,-0.0945 0.1181,-0.0709 0.11812,-0.0945 0.14173,-0.0945 0.14173,-0.0709 0.11812,-0.0709 0.14172,-0.0709 0.14174,-0.0709 0.14174,-0.0709 0.14172,-0.0472 0.11812,-0.0709 0.14172,-0.0472 0.14174,-0.0472 0.14173,-0.0472 0.14173,-0.0472 0.14173,-0.0236 0.16536,-0.0472 0.14173,-0.0237 0.14173,-0.0237 0.14174,-0.0237 0.14172,-0.0236 0.14174,-0.0237 h 0.14173 l 0.14173,-0.0237 h 0.16536 0.14173 0.14173 0.14174 l 0.14173,0.0237 h 0.14173 l 0.14174,0.0237 h 0.14172 l 0.14174,0.0236 0.14173,0.0237 0.14173,0.0472 0.14174,0.0237 0.14172,0.0236 0.14174,0.0472 0.14174,0.0472 0.14172,0.0472 0.11812,0.0472 0.14172,0.0472 0.14174,0.0472 0.11811,0.0709 0.14173,0.0709 0.11811,0.0472 0.14173,0.0709 0.11812,0.0709 0.1181,0.0709 0.11811,0.0945 0.14174,0.0709 0.1181,0.0709 0.11812,0.0945 0.0945,0.0945 0.11812,0.0945 0.11811,0.0945 0.11811,0.0945 0.0945,0.0945 0.11812,0.11811 0.0945,0.0945 0.0945,0.1181 0.0945,0.11811 0.0945,0.1181 0.0945,0.11811 0.0945,0.11811 0.0945,0.11811 0.0945,0.1181 0.0709,0.14173 0.071,0.14182 m -49.34645,-79.533202 5.17322,3.04716 4.01573,6.95539 4.0155,6.955 4.01558,6.95512 4.01589,6.95567 4.01548,6.95496 4.01554,6.95506 4.01571,6.95536 4.01583,6.955562 4.01594,6.95577 4.01615,6.95612 4.01588,6.95565 -5.18504,2.9763 -5.18504,2.97629 -4.01572,-6.95539 -4.01551,-6.955 -4.01557,-6.95512 -4.01589,-6.95567 -4.01548,-6.954952 -4.01554,-6.95507 -4.01571,-6.95536 -4.01583,-6.95556 -4.01594,-6.95577 -4.016154,-6.95612 -4.015879,-6.95565 2.598426,-4.49987 2.598427,-4.49988 m 5.17322,3.04716 -5.18504,2.9763 -5.185033,2.97629 -0.07085,-0.14173 -0.07085,-0.11811 -0.07086,-0.14173 -0.07085,-0.14172 -0.04721,-0.14173 -0.07086,-0.14173 -0.04721,-0.14173 -0.04721,-0.14173 -0.04721,-0.14173 -0.02365,-0.14173 -0.04721,-0.14172 -0.02365,-0.14173 -0.04721,-0.14173 -0.02365,-0.14172 -0.02365,-0.14173 -0.02365,-0.14174 v -0.14172 l -0.02365,-0.16535 v -0.14173 -0.14173 l -0.02365,-0.14172 0.02365,-0.14173 v -0.14174 -0.14172 l 0.02365,-0.14173 v -0.14173 l 0.02365,-0.14173 0.02365,-0.14172 0.02365,-0.14173 0.02365,-0.14173 0.04721,-0.14173 0.02365,-0.14173 0.04721,-0.14173 0.04721,-0.14173 0.04721,-0.14172 0.04721,-0.11811 0.04721,-0.14173 0.04721,-0.14172 0.07085,-0.11812 0.04721,-0.14172 0.07086,-0.11811 0.07085,-0.11811 0.07086,-0.14172 0.07085,-0.11811 0.07085,-0.11811 0.09449,-0.11811 0.07085,-0.1181 0.09449,-0.11811 0.09448,-0.1181 0.09449,-0.11811 0.09449,-0.11811 0.09449,-0.0945 0.09449,-0.1181 0.118114,-0.0945 0.09449,-0.1181 0.118115,-0.0945 0.118106,-0.0945 0.118106,-0.0945 0.118114,-0.0945 0.118106,-0.0945 0.118115,-0.0709 0.118106,-0.0945 0.141735,-0.0709 0.141736,-0.0945 0.118106,-0.0709 0.141736,-0.0708 0.141727,-0.0709 0.141736,-0.0708 0.141727,-0.0472 0.118114,-0.0472 0.141736,-0.0709 0.141727,-0.0472 0.141736,-0.0472 0.141727,-0.0237 0.141736,-0.0472 0.165357,-0.0236 0.141727,-0.0472 0.141738,-0.0236 0.14173,-0.0237 0.14173,-0.0236 h 0.14174 l 0.14173,-0.0237 h 0.14173 0.16535 0.14174 0.14173 0.14173 0.14173 l 0.14174,0.0237 h 0.14173 l 0.14173,0.0236 0.14173,0.0237 0.14174,0.0236 0.14173,0.0236 0.14173,0.0472 0.14173,0.0237 0.14173,0.0472 0.14174,0.0472 0.11811,0.0472 0.14173,0.0472 0.14174,0.0472 0.1181,0.0472 0.14174,0.0709 0.1181,0.0472 0.14174,0.0709 0.1181,0.0709 0.11812,0.0709 0.14173,0.0709 0.11811,0.0945 0.11811,0.0708 0.11811,0.0709 0.11812,0.0945 0.1181,0.0945 0.11811,0.0945 0.0945,0.0945 0.11811,0.0945 0.11811,0.0945 0.0945,0.11811 0.0945,0.0945 0.11811,0.11811 0.0945,0.11811 0.0945,0.1181 0.0945,0.11811 0.0708,0.1181 0.0945,0.11811 0.0945,0.14173 0.0709,0.11811 0.071,0.14179 m 83.17324,8.97612 h -8.03146 -8.03101 -8.03114 -8.03179 -8.03095 -8.03109 -8.03141 -8.03166 -8.03189 -8.0323 -8.03176 v -6.01164 -6.01164 h 8.03145 8.03101 8.03115 8.03178 8.03096 8.03108 8.03142 8.03166 8.03189 8.0323 8.03176 v 6.01164 6.01164 m 0,0 v -6.01164 -6.01164 h 0.14173 l 0.16535,0.0237 h 0.14174 l 0.16536,0.0236 h 0.14172 l 0.14174,0.0237 0.16535,0.0236 0.14173,0.0472 0.14174,0.0237 0.14172,0.0237 0.14174,0.0472 0.14173,0.0472 0.14173,0.0472 0.14174,0.0472 0.14173,0.0472 0.14173,0.0472 0.11811,0.0708 0.14173,0.0709 0.14174,0.0472 0.11811,0.0709 0.1181,0.0709 0.14174,0.0708 0.11811,0.0945 0.11811,0.0708 0.11811,0.0709 0.11811,0.0945 0.1181,0.0945 0.11812,0.0945 0.0945,0.0945 0.11812,0.0945 0.0945,0.0945 0.11812,0.0945 0.0945,0.0945 0.0945,0.11811 0.0945,0.0945 0.0945,0.11811 0.0945,0.11811 0.0945,0.1181 0.0709,0.11811 0.0945,0.1181 0.0709,0.11812 0.0709,0.1181 0.0709,0.11811 0.0709,0.14173 0.0709,0.1181 0.0709,0.14173 0.0709,0.11811 0.0472,0.14172 0.0709,0.14173 0.0472,0.11811 0.0472,0.14173 0.0472,0.14173 0.0236,0.14173 0.0472,0.14172 0.0472,0.14173 0.0237,0.16535 0.0236,0.14173 0.0237,0.14173 0.0236,0.16535 0.0236,0.14173 v 0.14173 l 0.0237,0.16534 v 0.14173 0.16536 0.14173 0.16534 l -0.0237,0.14173 v 0.16535 l -0.0236,0.14173 -0.0236,0.16535 -0.0237,0.14173 -0.0236,0.14173 -0.0237,0.14173 -0.0472,0.14172 -0.0472,0.16535 -0.0236,0.14173 -0.0472,0.1181 -0.0472,0.14173 -0.0472,0.14174 -0.0709,0.14172 -0.0472,0.14173 -0.0709,0.11811 -0.0709,0.14172 -0.0709,0.11811 -0.0709,0.14173 -0.0709,0.1181 -0.0709,0.11812 -0.0709,0.1181 -0.0945,0.11811 -0.0709,0.11811 -0.0945,0.1181 -0.0945,0.11811 -0.0945,0.0945 -0.0945,0.11811 -0.0945,0.0945 -0.0945,0.11812 -0.11812,0.0945 -0.0945,0.0945 -0.11812,0.0945 -0.0945,0.0945 -0.11812,0.0945 -0.1181,0.0945 -0.11811,0.0709 -0.11811,0.0945 -0.11811,0.0709 -0.11811,0.0709 -0.14174,0.0945 -0.1181,0.0709 -0.11811,0.0472 -0.14174,0.0708 -0.14173,0.0709 -0.11811,0.0472 -0.14173,0.0709 -0.14173,0.0472 -0.14174,0.0472 -0.14173,0.0472 -0.14173,0.0472 -0.14174,0.0237 -0.14172,0.0472 -0.14174,0.0236 -0.14173,0.0237 -0.16535,0.0237 -0.14174,0.0236 -0.14172,0.0237 -0.16536,0.0237 h -0.14174 -0.16535 l -0.14173,3.1e-4 m 93.51969,-3.02353 -5.17324,3.02353 h -8.03146 -8.031 -8.03115 -8.03178 -8.03096 -8.03108 -8.03142 -8.03165 -8.03189 -8.0323 -8.03176 v -6.01164 -6.01164 h 8.03145 8.03101 8.03115 8.03178 8.03095 8.03109 8.03141 8.03166 8.03189 8.0323 8.03176 l 2.58662,4.49988 2.58662,4.49987 m -5.17324,3.02353 v -6.01164 -6.01164 h 0.14175 l 0.16535,0.0237 h 0.14173 l 0.16536,0.0236 h 0.14173 l 0.14173,0.0237 0.16535,0.0236 0.14175,0.0472 0.14173,0.0237 0.14172,0.0237 0.14173,0.0472 0.14173,0.0472 0.14174,0.0472 0.14174,0.0472 0.14173,0.0472 0.14172,0.0472 0.11811,0.0708 0.14173,0.0709 0.11811,0.0472 0.14175,0.0709 0.11811,0.0709 0.14173,0.0708 0.11811,0.0945 0.11811,0.0708 0.11811,0.0709 0.11811,0.0945 0.11811,0.0945 0.0945,0.0945 0.11811,0.0945 0.11811,0.0945 0.0945,0.0945 0.11811,0.0945 0.0945,0.0945 0.0945,0.11811 0.0945,0.0945 0.0945,0.11811 0.0945,0.11811 0.0709,0.1181 0.0945,0.11811 0.0945,0.1181 0.0709,0.11812 0.0709,0.1181 0.0709,0.11811 0.0709,0.14173 0.0709,0.1181 0.0708,0.14173 0.0709,0.11811 0.0472,0.14172 0.0473,0.14173 0.0709,0.11811 0.0473,0.14173 0.0472,0.14173 0.0236,0.14173 0.0473,0.14172 0.0472,0.14173 0.0236,0.16535 0.0237,0.14173 0.0236,0.14173 0.0236,0.16535 0.0237,0.14173 v 0.14173 l 0.0236,0.16534 v 0.14173 0.16536 0.14173 0.16534 l -0.0236,0.14173 v 0.16535 l -0.0237,0.14173 -0.0236,0.16535 -0.0236,0.14173 -0.0237,0.14173 -0.0236,0.14173 -0.0472,0.14172 -0.0473,0.16535 -0.0236,0.14173 -0.0472,0.1181 -0.0473,0.14173 -0.0709,0.14174 -0.0473,0.14172 -0.0472,0.14173 -0.0709,0.11811 -0.0708,0.14172 -0.0709,0.11811 -0.0709,0.14173 -0.0709,0.1181 -0.0709,0.11812 -0.0709,0.1181 -0.0945,0.11811 -0.0945,0.11811 -0.0709,0.1181 -0.0945,0.11811 -0.0945,0.0945 -0.0945,0.11811 -0.0945,0.0945 -0.0945,0.11812 -0.11811,0.0945 -0.0945,0.0945 -0.11811,0.0945 -0.11811,0.0945 -0.0945,0.0945 -0.11811,0.0945 -0.11811,0.0709 -0.11811,0.0945 -0.11811,0.0709 -0.11811,0.0709 -0.14173,0.0945 -0.11811,0.0709 -0.14175,0.0472 -0.11811,0.0708 -0.14173,0.0709 -0.11811,0.0472 -0.14172,0.0709 -0.14173,0.0472 -0.14174,0.0472 -0.14174,0.0472 -0.14173,0.0472 -0.14173,0.0237 -0.14172,0.0472 -0.14173,0.0236 -0.14175,0.0237 -0.16535,0.0237 -0.14173,0.0236 -0.14173,0.0237 -0.16536,0.0237 h -0.14173 -0.16535 l -0.14175,3.1e-4 m -39,73.509752 -5.18504,-2.9881 -5.18504,-2.98811 4.01573,-6.95539 4.01551,-6.955 4.01557,-6.95512 4.01589,-6.955672 4.01548,-6.95496 4.01554,-6.95507 4.01571,-6.95535 4.01582,-6.95556 4.01595,-6.95577 4.01615,-6.95612 4.01588,-6.95565 5.18504,2.9763 5.18505,2.97629 -4.01573,6.95539 -4.01551,6.955 -4.01557,6.95512 -4.01589,6.95568 -4.01548,6.95495 -4.01554,6.95507 -4.01571,6.955352 -4.01583,6.95556 -4.01594,6.95577 -4.01616,6.95612 -4.01588,6.95565 v 0.0236 m -10.37008,-5.97621 5.18504,2.9763 5.18504,2.97629 -0.0709,0.14173 -0.0709,0.11811 -0.0945,0.14172 -0.0945,0.11811 -0.0945,0.11811 -0.0709,0.1181 -0.0945,0.11811 -0.11811,0.11811 -0.0945,0.0945 -0.0945,0.1181 -0.11811,0.0945 -0.0945,0.1181 -0.11811,0.0945 -0.0945,0.0945 -0.11811,0.0945 -0.11811,0.0945 -0.11812,0.0709 -0.1181,0.0945 -0.11811,0.0709 -0.11811,0.0709 -0.14173,0.0945 -0.11812,0.0708 -0.1181,0.0472 -0.14173,0.0709 -0.11811,0.0708 -0.14176,0.0472 -0.1181,0.0709 -0.14173,0.0472 -0.14173,0.0472 -0.14172,0.0472 -0.11812,0.0472 -0.14173,0.0237 -0.14174,0.0472 -0.14173,0.0237 -0.14172,0.0236 -0.14174,0.0236 -0.14173,0.0237 -0.14174,0.0237 -0.14174,0.0236 h -0.14172 l -0.14173,0.0237 h -0.14173 -0.16536 -0.14173 -0.14173 l -0.14173,-0.0237 h -0.14175 l -0.14173,-0.0236 -0.14172,-0.0237 -0.14173,-0.0237 -0.14173,-0.0236 -0.16536,-0.0236 -0.14173,-0.0237 -0.14174,-0.0472 -0.14172,-0.0472 -0.14175,-0.0472 -0.14172,-0.0472 -0.14174,-0.0472 -0.14173,-0.0472 -0.1181,-0.0709 -0.14173,-0.0709 -0.14175,-0.0472 -0.14173,-0.0709 -0.11812,-0.0945 -0.14172,-0.0709 -0.14173,-0.0709 -0.11811,-0.0945 -0.1181,-0.0945 -0.11812,-0.0709 -0.11811,-0.0945 -0.11811,-0.0945 -0.1181,-0.11811 -0.11812,-0.0945 -0.0945,-0.0945 -0.11811,-0.0945 -0.0945,-0.11811 -0.0945,-0.11811 -0.0945,-0.0945 -0.0945,-0.11811 -0.0945,-0.11811 -0.0945,-0.1181 -0.0709,-0.11811 -0.0945,-0.1181 -0.0708,-0.11811 -0.0709,-0.11811 -0.0709,-0.14172 -0.0709,-0.11812 -0.0709,-0.14173 -0.0473,-0.1181 -0.0709,-0.14173 -0.0473,-0.1181 -0.0472,-0.14173 -0.0472,-0.14173 -0.0473,-0.11811 -0.0472,-0.14173 -0.0473,-0.14173 -0.0237,-0.14173 -0.0472,-0.14172 -0.0237,-0.14173 -0.0237,-0.14173 -0.0236,-0.14172 -0.0237,-0.14174 v -0.14173 l -0.0237,-0.14172 v -0.14173 l -0.0236,-0.14173 v -0.14173 -0.14172 l 0.0236,-0.16535 v -0.14174 l 0.0237,-0.14172 v -0.14173 l 0.0237,-0.14173 0.0236,-0.14173 0.0237,-0.14172 0.0237,-0.14173 0.0472,-0.14174 0.0237,-0.16534 0.0473,-0.14173 0.0472,-0.14173 0.0473,-0.14173 0.0472,-0.14172 0.0708,-0.11811 0.0472,-0.14173 0.0709,-0.14173 0.0709,-0.14173 0.0708,-0.14173 0.0709,-0.11812 m -44.17322,82.48587 v -6.02345 l 4.01573,-6.95324 4.0155,-6.95286 4.01557,-6.95297 4.01589,-6.95353 4.01548,-6.9528 4.01554,-6.95292 4.01571,-6.95321 4.01583,-6.95341 4.01594,-6.95362 4.01615,-6.95398 4.01588,-6.9535 5.18504,2.99992 5.18504,2.99991 -4.01572,6.95539 -4.01551,6.955 -4.01557,6.95512 -4.01589,6.95568 -4.01548,6.95495 -4.01554,6.95507 -4.01571,6.95535 -4.01583,6.95556 -4.01594,6.95577 -4.01615,6.95612 -4.01588,6.95565 h -5.18504 -5.18504 m 0,-6.02345 5.18504,3.01172 5.18504,3.01173 -0.0709,0.11811 -0.0709,0.14173 -0.0945,0.11811 -0.0945,0.14172 -0.0945,0.11811 -0.0945,0.1181 -0.0945,0.11811 -0.0945,0.11812 -0.0945,0.0945 -0.0945,0.11811 -0.1181,0.0945 -0.0945,0.0945 -0.1181,0.1181 -0.11812,0.0945 -0.11811,0.0945 -0.0945,0.0709 -0.11811,0.0945 -0.11812,0.0709 -0.14172,0.0945 -0.11812,0.0709 -0.1181,0.0709 -0.11812,0.0709 -0.14172,0.0709 -0.11812,0.0709 -0.14173,0.0709 -0.11811,0.0472 -0.14174,0.0472 -0.14172,0.0472 -0.11812,0.0709 -0.14173,0.0236 -0.14173,0.0472 -0.14173,0.0472 -0.14173,0.0236 -0.14174,0.0472 -0.14173,0.0236 -0.14173,0.0236 -0.14173,0.0237 -0.14174,0.0236 h -0.14173 l -0.14173,0.0236 h -0.14173 -0.14174 l -0.14173,0.0237 -0.14173,-0.0237 h -0.16535 -0.14174 l -0.14173,-0.0236 -0.14173,-0.0236 h -0.14174 l -0.14172,-0.0237 -0.14174,-0.0236 -0.14173,-0.0472 -0.16535,-0.0236 -0.14174,-0.0472 -0.14173,-0.0472 -0.14173,-0.0472 -0.14174,-0.0473 -0.14172,-0.0472 -0.14174,-0.0472 -0.11811,-0.0709 -0.14173,-0.0709 -0.14174,-0.0709 -0.14172,-0.0709 -0.11812,-0.0709 -0.0709,-0.0237 -0.0709,-0.0472 -0.0709,-0.0472 -0.0709,-0.0472 -0.11811,-0.0709 -0.11811,-0.0945 -0.11811,-0.0945 -0.11811,-0.0945 -0.11811,-0.0945 -0.11811,-0.0945 -0.11811,-0.0945 -0.0945,-0.0945 -0.11811,-0.11811 -0.0945,-0.0945 -0.0945,-0.11811 -0.0945,-0.11811 -0.0945,-0.11811 -0.0945,-0.1181 -0.0945,-0.0945 -0.0709,-0.14172 -0.0945,-0.11811 -0.0709,-0.11811 -0.0709,-0.1181 -0.0709,-0.11811 -0.0708,-0.14173 -0.0709,-0.11811 -0.0472,-0.14173 -0.0709,-0.1181 -0.0473,-0.14173 -0.0472,-0.14173 -0.0472,-0.14173 -0.0472,-0.1181 -0.0472,-0.14174 -0.0236,-0.14172 -0.0472,-0.14173 -0.0237,-0.14173 -0.0472,-0.14173 -0.0236,-0.14172 -0.0237,-0.14174 v -0.14173 l -0.0236,-0.14172 v -0.14173 l -0.0239,-0.14173 v -0.14172 -0.14173 -0.16535 -0.14173 l 0.0237,-0.14173 v -0.14173 l 0.0236,-0.14173 0.0237,-0.14172 0.0237,-0.14173 0.0237,-0.14173 0.0236,-0.16535 0.0472,-0.14173 0.0237,-0.14173 0.0472,-0.14173 0.0473,-0.14172 0.0472,-0.14173 0.0472,-0.14173 0.0708,-0.14173 0.0472,-0.11811 0.0709,-0.14173 0.0709,-0.14172 0.0708,-0.14173 0.0709,-0.14178"
     id="path5903"
     inkscape:connector-curvature="0" />
  <path
     style="fill:#1f1a17;fill-opacity:1;fill-rule:nonzero;stroke:none;stroke-width:2.25358224"
     d="m 183.47245,299.7083 v -7.86058 -7.85995 -7.86087 -7.86025 -7.85968 -7.86035 -7.86046 -7.86051 -7.86037 -7.86033 -7.861 -7.86123 -7.86054 h 6.01181 6.01182 v 7.86058 7.85995 7.86086 7.86026 7.85967 7.86035 7.86046 7.86052 7.86036 7.86034 7.861 7.86122 7.86055 h -6.01182 -6.01181"
     id="path5905"
     inkscape:connector-curvature="0" />
  <path
     style="fill:#1f1a17;fill-opacity:1;fill-rule:nonzero;stroke:none;stroke-width:2.25358224"
     d="m 189.52129,321.4858 0.32894,-0.0216 h 0.40205 l 0.40038,-0.0249 0.37878,-0.0465 0.40204,-0.0482 0.37713,-0.0465 0.40204,-0.0465 0.33061,-0.0947 0.40203,-0.0714 0.35387,-0.0947 0.40204,-0.0947 0.33061,-0.11795 0.35386,-0.11796 0.40204,-0.11795 0.35387,-0.11796 0.28408,-0.14121 0.18773,-0.0714 0.1894,-0.0947 0.21265,-0.0947 0.11795,-0.0465 0.14287,-0.0947 0.23591,-0.0947 0.16447,-0.0947 0.16614,-0.0947 0.28243,-0.16447 0.3306,-0.1894 0.33226,-0.18938 0.30569,-0.18774 0.28409,-0.23756 0.28409,-0.18774 0.30568,-0.23756 0.30735,-0.23592 0.26082,-0.2359 0.28243,-0.25917 0.26083,-0.23758 0.28242,-0.25916 0.26084,-0.25917 0.21265,-0.2359 0.11795,-0.14288 0.16448,-0.14121 0.11795,-0.18939 0.14287,-0.14122 0.21265,-0.28408 0.21265,-0.30735 0.21265,-0.25917 0.21266,-0.30735 0.21265,-0.30735 0.18772,-0.3306 0.21265,-0.30735 0.16613,-0.35385 0.16448,-0.30735 0.16613,-0.30735 0.16447,-0.35386 0.16614,-0.37712 0.11795,-0.3306 0.14121,-0.33062 0.11962,-0.35552 0.11795,-0.40038 0.11796,-0.35553 0.0698,-0.3306 0.11796,-0.37712 0.0714,-0.40204 0.0947,-0.37712 0.0465,-0.40205 0.0482,-0.35386 0.0465,-0.37879 0.0482,-0.40203 v -0.37712 l 0.0233,-0.40205 0.0233,-0.37712 -0.0233,-0.37878 -0.0233,-0.4253 v -0.37713 l -0.0465,-0.40204 -0.0482,-0.35386 -0.0465,-0.35387 -0.0482,-0.40204 -0.0947,-0.40204 -0.0698,-0.37712 -0.11795,-0.37878 -0.0714,-0.33062 -0.11796,-0.37712 -0.11795,-0.37878 -0.11795,-0.35386 -0.14288,-0.30735 -0.11795,-0.35386 -0.18774,-0.40204 -0.14287,-0.30735 -0.16447,-0.3306 -0.16614,-0.33061 -0.18938,-0.33061 -0.18774,-0.30734 -0.18938,-0.30734 -0.21265,-0.33062 -0.21266,-0.30568 -0.21265,-0.28408 -0.21265,-0.28409 -0.23591,-0.30735 -0.23591,-0.28242 -0.26082,-0.28409 -0.23591,-0.25917 -0.25917,-0.28408 -0.28409,-0.23592 -0.25916,-0.25917 -0.2841,-0.23756 -0.28408,-0.23591 -0.28242,-0.23591 -0.30735,-0.23591 -0.28409,-0.18939 -0.28243,-0.23591 -0.3306,-0.18939 -0.30735,-0.1894 -0.3306,-0.18772 -0.33061,-0.21266 -0.30735,-0.14287 -0.3306,-0.16447 -0.3306,-0.16613 -0.37879,-0.16448 -0.35386,-0.1412 -0.30735,-0.11962 -0.37712,-0.14122 -0.37878,-0.11795 -0.35387,-0.0947 -0.35552,-0.0947 -0.35386,-0.0947 -0.40205,-0.0698 -0.37712,-0.0947 -0.37878,-0.0714 -0.37713,-0.0233 -0.37878,-0.0465 -0.40038,-0.0482 -0.37878,-0.0232 h -0.40038 l -0.35387,-0.0449 v 12.01474 l 0.0698,-0.0183 0.0714,0.0249 0.093,0.0233 0.0714,-0.0233 0.0947,0.0233 0.0947,0.0233 0.0947,0.0233 0.0698,-0.0233 0.0714,0.0465 h 0.0714 l 0.11796,0.0482 h 0.0698 l 0.0482,0.0233 0.0947,0.0482 0.11796,0.0233 0.0698,0.0465 h 0.0249 l 0.0698,0.0482 0.0947,0.0232 0.0947,0.0465 0.0465,0.0249 0.0714,0.0465 0.0714,0.0465 0.0465,0.0482 0.0714,0.0465 0.0947,0.0714 0.0698,0.0233 0.0482,0.0482 0.0465,0.0698 0.0714,0.0482 0.0714,0.0465 0.0465,0.0714 0.0465,0.0465 0.0714,0.0714 0.0465,0.0465 0.0482,0.0482 0.0465,0.0698 0.0482,0.0482 0.0698,0.0947 0.0249,0.0698 0.0465,0.0482 0.0465,0.0698 0.0482,0.0947 0.0233,0.0482 0.0714,0.0698 0.0233,0.0947 0.0465,0.0947 v 0.0233 l 0.0249,0.0714 0.0465,0.11795 0.0232,0.0714 0.0249,0.0465 0.0232,0.0947 0.0465,0.0947 v 0.0947 l 0.0233,0.0698 v 0.0482 l 0.0249,0.0698 0.0233,0.11962 v 0.093 0.0714 l 0.0233,0.0947 v 0.0947 l -0.0233,0.0947 0.0233,0.0947 v 0.0698 l -0.0233,0.0947 v 0.0714 0.11795 l -0.0233,0.0947 -0.0249,0.0698 v 0.0714 l -0.0233,0.0714 v 0.0698 l -0.0465,0.11796 -0.0249,0.0714 -0.0233,0.0714 -0.0232,0.0698 -0.0465,0.0947 -0.0249,0.0947 -0.0233,0.0233 -0.0232,0.0714 -0.0233,0.0947 -0.0714,0.0947 -0.0465,0.0465 -0.0249,0.0714 -0.0465,0.0698 -0.0482,0.0714 -0.0233,0.0465 -0.0698,0.0947 -0.0482,0.0714 -0.0698,0.0465 v 0.0482 h -0.0249 l -0.0233,0.0465 -0.0947,0.0947 -0.0465,0.0482 -0.0482,0.0465 -0.0698,0.0714 -0.0714,0.0465 -0.0714,0.0482 -0.0232,0.0465 -0.0698,0.0465 -0.0947,0.0714 -0.0714,0.0233 -0.0714,0.0482 -0.0465,0.0698 -0.0714,0.0249 -0.0947,0.0465 -0.0465,0.0233 -0.0233,0.0233 h -0.0482 l -0.0698,0.0482 h -0.0249 v 0.0233 l -0.14121,0.0482 -0.0714,0.0233 -0.0698,0.0233 -0.0714,0.0233 -0.0947,0.0249 -0.0698,0.0465 h -0.0714 l -0.0714,0.0233 h -0.11795 l -0.0698,0.0233 -0.0947,0.0249 h -0.0714 -0.0947 l -0.0698,0.0233 h -0.0714 l -0.093,-0.0183 z"
     id="path6608"
     inkscape:connector-curvature="0" />
  <path
     style="fill:#1f1a17;fill-opacity:1;fill-rule:nonzero;stroke:none;stroke-width:2.25358224"
     d="m 189.52046,321.4858 v -12.0164 l -0.0249,-0.005 -0.14122,0.0233 h -0.0714 l -0.0714,-0.0233 h -0.1412 -0.0233 l -0.0482,-0.0233 v 0.0233 l -0.11795,-0.0233 -0.14122,-0.0482 h -0.0233 -0.0482 l -0.0947,-0.0465 -0.14121,-0.0233 h -0.0233 l -0.0233,-0.0249 -0.11795,-0.0233 -0.14287,-0.0698 -0.0465,-0.0249 -0.0714,-0.0233 -0.0465,-0.0233 -0.0232,-0.0233 -0.0482,-0.0249 -0.0714,-0.0233 -0.0233,-0.0233 -0.0233,-0.0233 -0.0465,-0.0233 -0.0249,-0.0249 -0.0233,-0.0233 v 0.0233 l -0.0465,-0.0465 -0.11795,-0.0714 -0.0947,-0.0698 -0.0249,-0.0249 -0.0698,-0.0465 -0.0233,-0.0482 h -0.0249 l -0.0465,-0.0465 -0.0482,-0.0233 v -0.0233 h -0.0233 l -0.0465,-0.0714 -0.0714,-0.0714 h -0.0233 v -0.0233 l -0.0233,-0.0233 -0.0482,-0.0714 -0.0233,0.0233 v -0.0233 l -0.0465,-0.0465 -0.0482,-0.0482 -0.0232,-0.0233 v -0.0233 l -0.0465,-0.0714 -0.0947,-0.11796 -0.0249,-0.0465 -0.0233,-0.0714 -0.0465,-0.0482 -0.0233,-0.0233 -0.0482,-0.0698 -0.0233,-0.0714 -0.0232,-0.0465 -0.0482,-0.0947 h 0.0249 l -0.0249,-0.0249 -0.0698,-0.14122 -0.0249,-0.11795 h -0.0233 v -0.0233 l -0.0233,-0.0482 -0.0232,-0.11796 -0.0249,-0.11795 v -0.0232 l -0.0233,-0.0233 v -0.0233 l -0.0233,-0.14288 -0.0233,-0.0947 v -0.0465 -0.0233 l -0.0233,-0.0249 0.0233,-0.14121 -0.0233,-0.0714 v -0.0698 -0.11795 -0.11796 -0.0947 l 0.0233,-0.0714 -0.0233,-0.0947 0.0233,-0.0698 0.0233,-0.0947 0.0233,-0.0714 -0.0233,-0.0947 0.0482,-0.0714 v -0.093 l 0.0233,-0.0482 0.0232,-0.11796 0.0233,-0.0714 0.0482,-0.0465 0.0233,-0.0714 0.0465,-0.14121 0.0249,-0.0233 h -0.0249 l 0.0714,-0.0947 v -0.0465 -0.0249 l 0.0233,-0.0233 0.0482,-0.0947 0.0465,-0.0947 0.0482,-0.0465 0.0465,-0.0714 0.0465,-0.0698 0.0482,-0.0947 0.0465,-0.0482 0.0482,-0.0465 0.0465,-0.0714 0.0714,-0.0465 0.0465,-0.0714 0.0714,-0.0465 0.0465,-0.0714 0.0947,-0.0714 0.0233,-0.0233 h 0.0249 v -0.0465 h 0.0233 l 0.0698,-0.0714 0.0482,-0.0233 0.0947,-0.0714 0.0698,-0.0465 0.0714,-0.0482 0.0465,-0.0465 0.0714,-0.0233 0.0714,-0.0482 0.0698,-0.0465 0.11795,-0.0232 0.0714,-0.0249 0.0233,-0.0233 0.0947,-0.0465 0.0947,-0.0249 0.0714,-0.0465 0.0465,-0.0233 h 0.0947 l 0.0947,-0.0482 h 0.0947 l 0.0465,-0.0465 0.0714,0.0233 0.0947,-0.0233 0.0947,-0.0233 0.0947,-0.0249 0.0698,0.0249 0.0947,-0.0249 0.0714,-0.0233 0.11797,0.0233 v 0.002 l 0.0249,-0.007 v -12.01474 l -0.0249,-0.003 -0.37879,0.0482 h -0.42364 l -0.37879,0.0232 -0.40203,0.0465 -0.37713,0.0482 -0.35386,0.0233 -0.37878,0.0714 -0.40205,0.0947 -0.40038,0.0698 -0.35552,0.0947 -0.35386,0.0947 -0.35387,0.0947 -0.37878,0.11795 -0.35387,0.14122 -0.3306,0.11795 -0.3306,0.14287 -0.40205,0.14122 -0.35386,0.18939 -0.28409,0.16447 -0.3306,0.14287 -0.33061,0.18773 -0.30735,0.21265 -0.3306,0.1894 -0.30735,0.18939 -0.30734,0.23591 -0.28243,0.18939 -0.28408,0.23591 -0.30735,0.21265 -0.11795,0.14122 -0.18773,0.11795 -0.14288,0.14287 -0.14121,0.11796 -0.23591,0.2359 -0.28409,0.23592 -0.23591,0.28408 -0.25917,0.25917 -0.23757,0.28409 -0.23591,0.25916 -0.2359,0.33061 -0.23592,0.28409 -0.21265,0.28243 -0.21265,0.30733 -0.18938,0.30735 -0.1894,0.33061 -0.18773,0.30734 -0.18939,0.2841 -0.0714,0.18772 -0.0947,0.16613 -0.0947,0.21266 -0.093,0.16447 -0.0714,0.11795 -0.0947,0.1894 -0.0947,0.21265 -0.0465,0.18939 -0.14287,0.28243 -0.14122,0.35552 -0.11795,0.37712 -0.11796,0.35552 -0.0947,0.35387 -0.0947,0.37712 -0.0947,0.37878 -0.0698,0.37713 -0.0947,0.35552 -0.0714,0.40038 -0.0233,0.37879 -0.0482,0.37712 -0.0465,0.37878 -0.0232,0.40038 v 0.4253 l -0.0233,0.35553 h -0.002 l 0.0249,0.35386 v 0.40204 l 0.0232,0.40205 0.0482,0.3306 v 0.23591 l 0.0465,0.21265 v 0.18939 l 0.0465,0.23591 0.0714,0.35386 0.0482,0.30735 0.0465,0.21265 0.0465,0.21265 0.0482,0.18939 0.0465,0.23591 0.0947,0.33061 0.0947,0.30734 0.0714,0.18773 0.0465,0.21265 0.0714,0.1894 0.0947,0.2359 0.11796,0.30735 0.11795,0.28408 0.0465,0.16448 0.0947,0.23757 0.0947,0.18773 0.0714,0.11795 0.093,0.14288 0.0947,0.23591 0.0947,0.16447 0.0714,0.14288 0.0698,0.11795 0.11962,0.21265 0.0698,0.16447 0.0947,0.14288 0.0947,0.14121 0.11796,0.18939 0.11795,0.18773 0.0947,0.14288 0.16613,0.25916 0.21265,0.25917 0.14122,0.18939 0.1412,0.16613 0.11796,0.16447 0.0947,0.0947 0.0947,0.14122 0.14121,0.16613 0.14288,0.16613 0.093,0.11795 0.11962,0.11796 0.16447,0.16447 0.14121,0.14287 0.0714,0.093 0.11795,0.0947 0.14122,0.14287 0.14287,0.14121 0.14121,0.11796 0.11796,0.11795 0.16613,0.14122 0.16448,0.14287 0.11795,0.0947 0.11795,0.093 0.16613,0.11962 0.14122,0.14121 0.18939,0.14122 0.28409,0.18938 0.25917,0.1894 0.14121,0.0698 0.18939,0.14288 0.16613,0.0947 0.16447,0.11796 0.14288,0.0698 0.16447,0.0947 0.1894,0.0947 0.11795,0.0714 0.16447,0.0947 0.16613,0.093 0.21265,0.0947 0.14122,0.0714 0.14287,0.0714 0.18773,0.093 0.21265,0.0947 0.18939,0.0714 0.28409,0.11795 0.30568,0.11796 0.21265,0.0947 0.21265,0.0465 0.21265,0.0714 0.16614,0.0482 0.30734,0.11796 0.35387,0.0947 0.23591,0.0465 0.16614,0.0465 0.21265,0.0482 0.21265,0.0465 0.3306,0.0482 0.35386,0.0465 0.21265,0.0482 0.18939,0.0233 0.21265,0.0233 0.23591,0.0233 0.3306,0.0482 0.40205,0.0233 h 0.4253 l 0.35387,0.0233 z"
     id="path5909"
     inkscape:connector-curvature="0" />
  <path
     style="fill:#1f1a17;fill-opacity:1;fill-rule:nonzero;stroke:none;stroke-width:2.2224555"
     d="m 356.20774,114.44578 h -7.98019 -7.98022 -7.97966 -7.97985 -7.97955 -7.98059 -7.98076 -7.97952 -7.98038 -7.98036 -7.97984 -7.98079 -7.9805 -7.98044 v -6.01164 -6.01164 h 7.98019 7.98023 7.97965 7.97985 7.97955 7.98059 7.98076 7.97952 7.98039 7.98035 7.97985 7.98078 7.98051 7.98043 v 6.01164 6.01164"
     id="path5911"
     inkscape:connector-curvature="0" />
  <path
     style="fill:#1f1a17;fill-opacity:1;fill-rule:nonzero;stroke:none;stroke-width:2.25358224"
     d="m 365.92804,108.42346 0.0233,0.11795 v 0.0698 l -0.0233,0.0947 v 0.0714 0.0947 l -0.0233,0.0947 -0.0249,0.093 v 0.0714 l -0.0233,0.0714 v 0.0698 l -0.0465,0.11962 -0.0233,0.0698 -0.0249,0.0482 -0.0233,0.093 -0.0465,0.0947 -0.0233,0.0947 -0.0233,0.0233 -0.0249,0.0482 -0.0465,0.11795 -0.0465,0.0714 -0.0482,0.0698 -0.0233,0.0714 -0.0465,0.0465 -0.0482,0.0714 -0.0233,0.0714 -0.0714,0.093 -0.0465,0.0714 -0.0715,0.0482 v 0.0465 l -0.0232,-0.0233 v 0.0233 l -0.0233,0.0233 -0.0947,0.0947 -0.0715,0.0482 -0.0233,0.0698 -0.0698,0.0482 -0.0714,0.0698 -0.0714,0.0482 -0.0233,0.0465 -0.0698,0.0465 -0.0947,0.0482 -0.0714,0.0465 -0.0714,0.0482 -0.0465,0.0465 -0.0714,0.0482 -0.0947,0.0465 -0.0465,0.0232 h -0.0233 l 0.0233,0.0233 h -0.0714 l -0.0698,0.0482 h -0.0249 v 0.0233 l -0.14121,0.0233 -0.0714,0.0482 -0.0698,0.0233 -0.0714,0.0232 -0.0947,0.0233 -0.0714,0.0249 -0.0698,0.0233 -0.0714,0.0233 h -0.11795 -0.0714 l -0.093,0.0482 h -0.0714 -0.0947 -0.0714 l -0.0698,0.0232 -0.11796,-0.0232 v 6.0107 6.01235 l 0.35221,-0.0233 0.40204,-0.0249 h 0.40204 l 0.37713,-0.0465 0.40203,-0.0465 0.37713,-0.0482 0.40204,-0.0465 0.3306,-0.0947 0.40205,-0.0714 0.35386,-0.11795 0.40204,-0.0714 0.33061,-0.11795 0.35386,-0.11795 0.40204,-0.11796 0.35387,-0.14121 0.28408,-0.11796 0.18774,-0.0714 0.18938,-0.0947 0.21266,-0.0947 0.11795,-0.0465 0.14287,-0.0947 0.23592,-0.0947 0.16447,-0.11796 0.16613,-0.0698 0.28243,-0.18938 0.33226,-0.16614 0.33061,-0.18939 0.30568,-0.21099 0.28409,-0.21265 0.28409,-0.21265 0.30734,-0.23757 0.30569,-0.23591 0.26082,-0.2359 0.28243,-0.23592 0.26084,-0.2359 0.28242,-0.26083 0.26083,-0.28243 0.21265,-0.23757 0.11795,-0.11795 0.16447,-0.16448 0.11962,-0.16613 0.14121,-0.14121 0.21265,-0.28409 0.21265,-0.30569 0.21265,-0.28408 0.21265,-0.30735 0.21265,-0.28409 0.18773,-0.35386 0.21265,-0.30735 0.16613,-0.3306 0.16448,-0.3306 0.16614,-0.28243 0.16613,-0.35553 0.16447,-0.40038 0.11795,-0.33061 0.14122,-0.3306 0.11961,-0.35552 0.11795,-0.37713 0.11796,-0.35552 0.0698,-0.35386 0.11795,-0.35387 0.0714,-0.40204 0.0947,-0.40038 0.0465,-0.35553 0.0482,-0.37712 0.0465,-0.37878 0.0482,-0.40038 v -0.37878 l 0.0232,-0.40205 0.0233,-0.40037 h -6.01236 z"
     id="path6603"
     inkscape:connector-curvature="0" />
  <path
     style="fill:#1f1a17;fill-opacity:1;fill-rule:nonzero;stroke:none;stroke-width:2.25358224"
     d="m 362.57714,93.044518 v 6.01235 6.012362 l 0.0947,-0.0249 0.0698,0.0249 h 0.0947 0.0714 0.0947 l 0.11795,0.0465 h 0.0698 0.0714 l 0.0714,0.0233 0.0698,0.0233 0.11795,0.0249 0.0714,0.0233 0.0465,0.0233 0.0947,0.0233 0.11796,0.0482 0.0714,0.0233 h 0.0233 l 0.0714,0.0482 0.0947,0.0465 0.0947,0.0465 0.0465,0.0249 0.0714,0.0465 0.0698,0.0465 0.0482,0.0482 0.0698,0.0465 0.0947,0.0482 0.0714,0.0465 0.0465,0.0482 0.0482,0.0465 0.0698,0.0714 0.0714,0.0465 0.0233,0.0714 0.0714,0.0465 0.0698,0.0714 0.0482,0.0465 0.0465,0.0482 0.0482,0.0698 0.0465,0.0482 0.0714,0.0947 0.0233,0.0698 0.0465,0.0482 0.0482,0.0698 0.0465,0.0714 0.0233,0.0714 0.0482,0.0698 0.0465,0.0947 0.0482,0.0947 0.0233,0.0947 0.0465,0.11795 0.0233,0.0714 0.0233,0.0465 0.0249,0.0947 0.0465,0.0947 v 0.0947 l 0.0233,0.0465 v 0.0714 l 0.0249,0.0947 0.0233,0.093 v 0.0947 0.0714 l 0.0233,0.0947 v 0.0698 l -0.0233,0.0947 h 6.0107 6.01236 l -0.0216,-0.37712 -0.0233,-0.40204 v -0.37712 l -0.0482,-0.40205 -0.0465,-0.37712 -0.0482,-0.37878 -0.0465,-0.35387 -0.0947,-0.40204 -0.0714,-0.40204 -0.11795,-0.35386 -0.0698,-0.35387 -0.11961,-0.35386 -0.11796,-0.37879 -0.11795,-0.35385 -0.14121,-0.30735 -0.11796,-0.35387 -0.18939,-0.40204 -0.14122,-0.3306 -0.16613,-0.30735 -0.16447,-0.3306 -0.18939,-0.33061 -0.18939,-0.30734 -0.1894,-0.30735 -0.21098,-0.330602 -0.21265,-0.30735 -0.21265,-0.28243 -0.21265,-0.28409 -0.23757,-0.30735 -0.23591,-0.28242 -0.25917,-0.28408 -0.23591,-0.25917 -0.26083,-0.28409 -0.28243,-0.25917 -0.26083,-0.2359 -0.28242,-0.23758 -0.28408,-0.23591 -0.2841,-0.23591 -0.30734,-0.2359 -0.28243,-0.21265 -0.28408,-0.21265 -0.33061,-0.1894 -0.30734,-0.18939 -0.33061,-0.18773 -0.33061,-0.21265 -0.30734,-0.14288 -0.33061,-0.18772 -0.3306,-0.14288 -0.37713,-0.18773 -0.35552,-0.11962 -0.30568,-0.14121 -0.37878,-0.11795 -0.37713,-0.11796 -0.35552,-0.11795 -0.35387,-0.0714 -0.35386,-0.11795 -0.40204,-0.0698 -0.37713,-0.0947 -0.40204,-0.0482 -0.35386,-0.0233 -0.37878,-0.0714 -0.40205,-0.0465 h -0.37712 l -0.40204,-0.0232 z"
     id="path6601"
     inkscape:connector-curvature="0" />
  <path
     style="fill:#1f1a17;fill-opacity:1;fill-rule:nonzero;stroke:none;stroke-width:2.25358224"
     d="m 361.26967,105.31843 0.0532,-0.0133 0.0947,-0.0482 0.0714,-0.0233 0.0465,-0.0233 0.0947,-0.0249 0.0947,-0.0233 0.0947,-0.0233 0.0465,-0.0233 h 0.0714 0.0698 l 0.11796,-0.0482 h 0.0947 0.0714 0.0947 l 0.0714,-0.0232 0.11795,0.0232 v -6.010692 -6.01235 l -0.37712,0.0233 -0.4253,0.0233 h -0.37878 l -0.1246,0.0149 z"
     id="path6599"
     inkscape:connector-curvature="0" />
  <path
     style="fill:#1f1a17;fill-opacity:1;fill-rule:nonzero;stroke:none;stroke-width:2.25358224"
     d="m 361.26967,123.75919 0.12127,0.0166 h 0.40205 l 0.40204,0.0233 0.37713,0.0249 v -6.01235 -6.0107 l -0.14122,0.0232 -0.0714,-0.0232 h -0.0698 -0.14287 v -0.0249 l -0.0233,0.0249 -0.0465,-0.0249 h -0.11796 l -0.14288,-0.0465 h -0.0233 -0.0465 v -0.0233 l -0.0947,-0.0249 -0.14122,-0.0233 h -0.0249 l -0.0232,-0.0232 -0.11796,-0.0465 -0.0748,-0.0249 z"
     id="path6597"
     inkscape:connector-curvature="0" />
  <path
     style="fill:#1f1a17;fill-opacity:1;fill-rule:nonzero;stroke:none;stroke-width:2.25358224"
     d="m 361.26889,123.75919 v -12.19582 l -0.0665,-0.0233 -0.0482,-0.0233 -0.0698,-0.0233 -0.0482,-0.0249 v -0.0233 h -0.0233 l -0.0465,-0.0232 -0.0714,-0.0233 -0.0233,-0.0233 -0.0233,-0.0249 -0.0482,-0.0465 h -0.0465 l -0.0482,-0.0482 -0.11795,-0.093 -0.0947,-0.0482 -0.0233,-0.0233 -0.0698,-0.0465 -0.0249,-0.0482 h -0.0233 l -0.0465,-0.0714 -0.0482,-0.0233 h -0.0233 l -0.0465,-0.0947 -0.0714,-0.0465 -0.0233,-0.0232 -0.0232,-0.0482 -0.0482,-0.0465 h -0.0233 l -0.0465,-0.0482 -0.0482,-0.0698 h -0.0233 v -0.0233 l -0.0465,-0.0947 -0.0947,-0.11795 -0.0233,-0.0482 -0.0233,-0.0233 v -0.0233 l -0.0482,-0.0482 -0.0233,-0.0233 -0.0482,-0.0947 -0.0233,-0.0465 -0.0232,-0.0714 -0.0465,-0.0714 v -0.0233 l -0.0714,-0.14121 -0.0465,-0.11796 h 0.0233 l -0.0233,-0.0233 -0.0249,-0.0482 -0.0232,-0.11795 -0.0233,-0.11796 -0.0233,-0.0232 v -0.0233 -0.0249 l -0.0233,-0.14122 -0.0249,-0.11795 -0.0233,-0.0482 0.0233,-0.0233 h -0.0233 v -0.14121 -0.0714 l -0.0233,-0.0698 0.0233,-0.14287 h 0.002 l -0.0233,-0.11795 0.0233,-0.0714 v -0.0698 -0.0947 -0.0714 l 0.0482,-0.0947 v -0.0698 -0.11796 l 0.0233,-0.0482 0.0233,-0.0947 0.0233,-0.0698 0.0233,-0.0947 0.0233,-0.0714 0.0249,-0.0465 0.0465,-0.0947 0.0482,-0.1412 v -0.0249 l 0.0465,-0.0698 0.0233,-0.0482 v -0.0232 l 0.0233,-0.0233 0.0482,-0.11795 0.0465,-0.0714 0.0482,-0.0465 0.0465,-0.0714 0.0465,-0.0714 0.0482,-0.0947 0.0465,-0.0465 0.0482,-0.0465 0.0465,-0.0714 0.0714,-0.0465 0.0465,-0.0714 0.0714,-0.0465 0.0465,-0.0714 0.0947,-0.0714 0.0232,-0.0465 h 0.0233 v -0.0233 h 0.0249 l 0.0698,-0.0714 0.0482,-0.0482 0.0947,-0.0465 0.0698,-0.0465 0.0714,-0.0482 0.0465,-0.0465 0.0714,-0.0249 0.0714,-0.0465 0.0698,-0.0465 0.11795,-0.0482 0.0714,-0.0233 0.0233,-0.0233 0.0415,-0.01 V 93.105878 l -0.27578,0.0332 -0.37879,0.0714 -0.35386,0.0233 -0.37878,0.0465 -0.40039,0.0947 -0.40203,0.0714 -0.35387,0.11795 -0.35552,0.0698 -0.35386,0.11961 -0.37713,0.11796 -0.35552,0.11795 -0.33061,0.14121 -0.3306,0.11796 -0.40039,0.16613 -0.35552,0.16448 -0.28243,0.18938 -0.3306,0.14122 -0.3306,0.18939 -0.30735,0.21265 -0.3306,0.18939 -0.30735,0.18773 -0.30735,0.21265 -0.28408,0.21265 -0.28243,0.23757 -0.30735,0.21265 -0.11795,0.14122 -0.18939,0.11795 -0.16613,0.14121 -0.11796,0.11796 -0.23591,0.21265 -0.28243,0.26083 -0.23757,0.28243 -0.25916,0.26083 -0.23592,0.28242 -0.2359,0.26083 -0.23757,0.3306 -0.23591,0.28243 -0.21265,0.28409 -0.21265,0.30735 -0.18773,0.307342 -0.18939,0.33061 -0.1894,0.30734 -0.18938,0.28242 -0.0698,0.16614 -0.0947,0.18939 -0.11795,0.21099 -0.0947,0.14288 -0.0482,0.1412 -0.0947,0.1894 -0.093,0.18939 -0.0482,0.21265 -0.14121,0.28243 -0.14121,0.35386 -0.11962,0.37879 -0.11795,0.35386 -0.11796,0.3306 -0.0698,0.40205 -0.0947,0.35386 -0.0714,0.40204 -0.0947,0.35387 -0.0698,0.37878 -0.0249,0.37712 -0.0465,0.40205 -0.0482,0.37712 -0.0233,0.40203 v 0.40205 l -0.0465,0.35386 h -0.002 l 0.0448,0.37879 v 0.40204 l 0.0233,0.40038 0.0482,0.33061 v 0.23756 l 0.0465,0.21265 v 0.18774 l 0.0482,0.23756 0.0698,0.33061 0.0482,0.33061 0.0233,0.21265 0.0698,0.21265 0.0482,0.18772 0.0465,0.21265 0.0714,0.35553 0.11795,0.30569 0.0714,0.18939 0.0465,0.18939 0.0714,0.21265 0.0714,0.21265 0.14121,0.30735 0.11796,0.28242 0.0465,0.18939 0.0947,0.21265 0.0947,0.21265 0.0714,0.11796 0.0698,0.14121 0.11961,0.21265 0.093,0.1894 0.0714,0.1412 0.0714,0.11796 0.11796,0.18939 0.0698,0.16613 0.0947,0.14122 0.0947,0.18939 0.11796,0.16447 0.11795,0.18939 0.0947,0.11796 0.16613,0.26082 0.21265,0.28243 0.14121,0.18939 0.14121,0.16448 0.11796,0.14287 0.0947,0.11796 0.0947,0.14121 0.14288,0.14288 0.14121,0.18773 0.0947,0.0947 0.11796,0.14121 0.16447,0.14288 0.14287,0.16447 0.0698,0.0947 0.11795,0.0714 0.14288,0.16447 0.14121,0.14288 0.14121,0.11795 0.0947,0.0947 0.18939,0.14122 0.16448,0.1412 0.11961,0.0947 0.11795,0.11795 0.16447,0.0947 0.14288,0.14122 0.18774,0.14287 0.28408,0.21265 0.25917,0.16447 0.14287,0.0947 0.18773,0.14121 0.1894,0.0947 0.14121,0.11795 0.14287,0.0714 0.16447,0.0714 0.1894,0.11795 0.11795,0.0698 0.16613,0.0714 0.16447,0.11796 0.21265,0.0947 0.14122,0.0714 0.14287,0.0698 0.18939,0.0947 0.21099,0.0947 0.18939,0.0714 0.28409,0.0947 0.30735,0.14121 0.21265,0.0714 0.21265,0.0698 0.18773,0.0482 0.18939,0.0698 0.30734,0.11795 0.35387,0.0714 0.23591,0.0465 0.16614,0.0714 0.21265,0.0465 0.21265,0.0482 0.3306,0.0465 0.35386,0.0482 0.21265,0.0465 0.18939,0.0233 0.21265,0.0249 0.23591,0.0233 z"
     id="path5915"
     inkscape:connector-curvature="0" />
  <path
     style="fill:#1f1a17;fill-opacity:1;fill-rule:nonzero;stroke:none;stroke-width:2.18781614"
     d="m 22.199495,102.4225 h 7.984625 7.984662 7.98409 7.984284 7.983994 7.985026 7.985196 7.983957 7.984825 7.984786 7.98428 7.98522 7.98494 7.98488 v 6.01164 6.01164 h -7.98463 -7.98465 -7.9841 -7.98428 -7.983997 -7.985028 -7.985191 -7.983959 -7.984822 -7.984792 -7.984284 -7.985213 -7.984946 -7.984873 v -6.01164 -6.01164"
     id="path5917"
     inkscape:connector-curvature="0" />
  <path
     style="fill:#1f1a17;fill-opacity:1;fill-rule:nonzero;stroke:none;stroke-width:2.25358224"
     d="m 15.282025,123.81734 0.09636,0.007 0.355525,-0.0249 0.4253,-0.0233 h 0.400381 l 0.378783,-0.0465 0.377123,-0.0482 0.378783,-0.0465 0.402042,-0.0482 0.353863,-0.093 0.377122,-0.0714 0.378784,-0.11795 0.377122,-0.0714 0.355525,-0.11795 0.353863,-0.11795 0.377122,-0.11796 0.355525,-0.14121 0.282426,-0.11796 0.189392,-0.0714 0.21265,-0.0947 0.189392,-0.0947 0.117954,-0.0465 0.164472,-0.0947 0.212651,-0.0947 0.166132,-0.11796 0.189393,-0.0714 0.282426,-0.1894 0.307346,-0.16447 0.330605,-0.18939 0.307346,-0.21265 0.307346,-0.21265 0.284087,-0.21265 0.282427,-0.23591 0.330605,-0.23591 0.260828,-0.2359 0.282427,-0.23592 0.260829,-0.23756 0.282426,-0.25917 0.235909,-0.2841 0.23757,-0.2359 0.117955,-0.11795 0.141213,-0.16448 0.117954,-0.16613 0.141214,-0.14121 0.21265,-0.28409 0.23757,-0.30735 0.187731,-0.28242 0.23757,-0.30735 0.18773,-0.28409 0.189392,-0.35386 0.21265,-0.30735 0.189392,-0.3306 0.141213,-0.3306 0.166134,-0.2841 0.18773,-0.35386 0.142874,-0.40204 0.141213,-0.3306 0.117955,-0.33061 0.141213,-0.35386 0.117954,-0.37879 0.0947,-0.35386 0.0947,-0.35386 0.0947,-0.35387 0.07144,-0.40204 0.0947,-0.40204 0.06978,-0.35387 0.02492,-0.37878 0.04652,-0.37712 0.04652,-0.40204 0.02492,-0.37712 v -0.40205 l 0.04652,-0.40204 -0.04652,-0.37712 v -0.40204 l -0.02492,-0.37712 -0.04652,-0.40205 -0.04818,-0.37878 -0.02326,-0.37712 -0.06978,-0.35387 -0.0947,-0.40204 -0.07144,-0.40204 -0.0947,-0.35386 -0.0947,-0.35387 -0.0947,-0.35552 -0.117954,-0.37713 -0.141213,-0.35385 -0.117955,-0.30735 -0.141213,-0.35387 -0.166133,-0.40204 -0.164471,-0.3306 -0.166134,-0.30735 -0.141213,-0.3306 -0.21265,-0.33061 -0.189392,-0.30734 -0.189392,-0.30735 -0.18773,-0.330602 -0.23757,-0.30735 -0.187731,-0.28243 -0.23757,-0.28409 -0.235909,-0.30735 -0.235909,-0.28242 -0.235909,-0.28408 -0.260829,-0.26083 -0.235909,-0.28243 -0.282426,-0.26083 -0.260829,-0.23591 -0.282427,-0.23591 -0.284087,-0.23591 -0.307346,-0.23591 -0.282427,-0.2359 -0.284087,-0.21265 -0.307346,-0.21265 -0.330605,-0.1894 -0.307346,-0.18939 -0.307346,-0.18939 -0.330605,-0.21265 -0.330605,-0.14122 -0.330605,-0.18938 -0.307346,-0.14122 -0.400381,-0.18939 -0.355525,-0.11796 -0.307346,-0.14121 -0.353864,-0.11795 -0.377121,-0.11796 -0.378783,-0.11795 -0.330605,-0.0714 -0.377123,-0.11795 -0.378783,-0.0714 -0.402042,-0.0947 -0.40038,-0.0465 -0.355525,-0.0233 -0.353864,-0.0714 -0.402042,-0.0465 H 16.15921 l -0.402041,-0.0249 -0.378784,-0.0233 -0.09636,0.007 V 105.0469 l 0.0033,-0.002 0.09304,0.0232 0.0947,-0.0232 0.09469,0.0249 h 0.0947 0.07144 0.0947 l 0.117954,0.0465 h 0.06978 0.04818 l 0.06977,0.0233 0.0947,0.0249 0.0947,0.0232 0.0947,0.0233 0.04652,0.0233 0.07144,0.0233 0.117955,0.0482 0.07144,0.0233 h 0.02326 l 0.09469,0.0482 0.0947,0.0465 0.07144,0.0465 0.04652,0.0249 0.09469,0.0465 0.06978,0.0465 0.04818,0.0482 0.07144,0.0465 0.09303,0.0482 0.04818,0.0465 0.07144,0.0465 0.04652,0.0482 0.04652,0.0714 0.07144,0.0465 0.04818,0.0714 0.06978,0.0465 0.04818,0.0714 0.04652,0.0465 0.07144,0.0482 0.04652,0.0698 0.02326,0.0482 0.07144,0.0947 0.04652,0.0698 0.04818,0.0482 0.04652,0.0698 0.04818,0.0714 0.02326,0.0714 0.04652,0.0698 0.02492,0.0947 0.04652,0.0947 0.04652,0.0947 0.02492,0.11795 0.04652,0.0714 0.02326,0.0465 v 0.0947 l 0.04818,0.0947 v 0.0947 l 0.04652,0.0465 -0.02326,0.0714 0.02326,0.0947 0.02326,0.093 0.02492,0.0947 -0.02492,0.0714 0.02492,0.0947 0.02326,0.0698 -0.02326,0.0947 0.02326,0.11962 -0.02326,0.0698 -0.02492,0.0947 0.02492,0.0714 -0.02492,0.0947 -0.02326,0.0947 -0.02326,0.093 0.02326,0.0714 -0.04652,0.0714 v 0.0698 l -0.04818,0.11796 v 0.0714 l -0.02326,0.0465 -0.04652,0.0947 -0.02492,0.0947 -0.04652,0.0947 -0.02326,0.0233 -0.02326,0.0482 -0.02492,0.11795 -0.04652,0.0714 -0.04652,0.0698 -0.02492,0.0714 -0.04652,0.0465 -0.04818,0.0714 -0.04652,0.0714 -0.07144,0.093 -0.02326,0.0714 -0.07144,0.0465 v 0.0482 l -0.04652,-0.0233 v 0.0233 l -0.02326,0.0233 -0.07144,0.0947 -0.07144,0.0465 -0.04652,0.0714 -0.07144,0.0465 -0.04652,0.0714 -0.07144,0.0482 -0.04652,0.0465 -0.04818,0.0465 -0.09303,0.0482 -0.07144,0.0465 -0.07144,0.0482 -0.04652,0.0465 -0.09469,0.0465 -0.0947,0.0482 -0.02326,0.0232 h -0.02326 v 0.0233 h -0.04818 l -0.0947,0.0482 -0.02326,0.0233 -0.141213,0.0233 -0.07144,0.0482 -0.04652,0.0233 -0.07144,0.0232 -0.117955,0.0233 -0.04652,0.0249 -0.0947,0.0233 -0.07144,0.0233 h -0.0947 -0.07144 l -0.09303,0.0465 h -0.07144 -0.0947 -0.07144 l -0.09303,0.0249 -0.119616,-0.0249 v 0.002 l -0.09636,0.0183 z"
     id="path6574"
     inkscape:connector-curvature="0" />
  <path
     style="fill:#1f1a17;fill-opacity:1;fill-rule:nonzero;stroke:none;stroke-width:2.25358224"
     d="m 15.280921,123.81734 v -11.99813 l -0.0216,0.005 -0.06978,-0.0232 h -0.07144 -0.141214 l -0.02492,-0.0249 -0.02326,0.0249 -0.04652,-0.0249 h -0.09469 l -0.141214,-0.0465 h -0.02492 -0.02326 -0.04652 l 0.02326,-0.0233 -0.117954,-0.0249 -0.117955,-0.0233 h -0.04818 l -0.02326,-0.0232 -0.117954,-0.0465 -0.141214,-0.0482 -0.02492,-0.0233 -0.09303,-0.0233 -0.04818,-0.0249 0.02326,-0.0233 h -0.02326 l -0.07144,-0.0232 -0.06978,-0.0233 v -0.0233 l -0.02326,-0.0249 -0.04818,-0.0465 h -0.06978 l -0.04818,-0.0482 -0.117955,-0.093 -0.07144,-0.0482 h -0.02326 l -0.02326,-0.0233 -0.04818,-0.0465 -0.04652,-0.0482 -0.07144,-0.0714 -0.02326,-0.0233 h -0.02326 l -0.07144,-0.0947 -0.06978,-0.0465 v -0.0232 h -0.02492 l -0.02326,-0.0482 -0.04652,-0.0465 -0.04818,-0.0482 -0.04652,-0.0698 h -0.02326 v -0.0233 l -0.07144,-0.0947 -0.07144,-0.11795 -0.04652,-0.0482 h 0.02326 l -0.02326,-0.0233 -0.02326,-0.0233 -0.02492,-0.0482 -0.04652,-0.0233 -0.02326,-0.0947 -0.02326,-0.0465 -0.02492,-0.0233 v 0.0233 l -0.02326,-0.0714 -0.02326,-0.0714 -0.02326,-0.0233 -0.07144,-0.14121 -0.02326,-0.11796 v -0.0233 h -0.02326 v -0.0482 l -0.02492,-0.11795 -0.04652,-0.11796 v -0.0232 -0.0233 -0.0249 l -0.04652,-0.14122 -0.02492,-0.11795 h 0.02492 l -0.02492,-0.0482 v -0.0233 -0.14121 l -0.02326,-0.0714 v -0.0698 l 0.02326,-0.14287 -0.02326,-0.11795 v -0.0714 l 0.02326,-0.0698 v -0.0947 -0.0714 l 0.02492,-0.0947 0.02326,-0.0698 v -0.11796 l 0.02326,-0.0482 v -0.0947 l 0.04652,-0.0698 0.02492,-0.0947 0.02326,-0.0714 0.02326,-0.0465 0.02326,-0.0947 0.04818,-0.1412 h 0.02326 v -0.0249 l 0.04652,-0.0698 v -0.0482 l 0.02492,-0.0232 0.02326,-0.0233 0.02326,-0.11795 0.04818,-0.0714 0.06978,-0.0465 0.04818,-0.0714 0.02326,-0.0714 0.07144,-0.0947 0.04652,-0.0465 0.04652,-0.0465 0.04818,-0.0714 0.04652,-0.0465 0.07144,-0.0714 0.04652,-0.0482 0.04818,-0.0698 0.0947,-0.0714 0.04652,-0.0465 v -0.0233 h 0.04818 l 0.04652,-0.0714 0.07144,-0.0482 0.09304,-0.0465 0.04818,-0.0465 0.07144,-0.0482 0.06978,-0.0465 0.07144,-0.0233 0.04652,-0.0482 0.0947,-0.0465 0.09469,-0.0482 0.07144,-0.0233 0.02326,-0.0233 0.0947,-0.0233 0.0947,-0.0482 0.06977,-0.0233 0.07144,-0.0233 0.07144,-0.0249 0.117954,-0.0233 0.06978,-0.0233 0.07144,-0.0233 h 0.07144 0.06977 l 0.0947,-0.0482 h 0.117955 0.07144 0.09469 l 0.06811,-0.0216 V 93.050768 l -0.280765,0.0166 -0.402043,0.0249 h -0.377121 l -0.402042,0.0465 -0.378784,0.0714 -0.353863,0.0233 -0.402043,0.0465 -0.377122,0.0947 -0.402041,0.0714 -0.377123,0.11795 -0.330605,0.0714 -0.355524,0.11795 -0.400381,0.11796 -0.355525,0.11795 -0.3306046,0.14121 -0.330605,0.11796 -0.3771217,0.16613 -0.3538638,0.16448 -0.3073461,0.18938 -0.3073462,0.14122 -0.3538635,0.18939 -0.3073462,0.21265 -0.3306048,0.18939 -0.3073462,0.1894 -0.3073462,0.21265 -0.2591676,0.21265 -0.3073461,0.2359 -0.2840876,0.21265 -0.1412131,0.14122 -0.1893918,0.11795 -0.1412131,0.14121 -0.1428744,0.11962 -0.235909,0.21099 -0.2591676,0.26083 -0.2608289,0.28409 -0.235909,0.25917 -0.2591676,0.28408 -0.2359089,0.25917 -0.2375704,0.3306 -0.235909,0.28409 -0.1893916,0.28243 -0.2359091,0.30735 -0.1877303,0.307342 -0.1893917,0.33061 -0.1893917,0.30734 -0.1644718,0.28242 -0.094696,0.16614 -0.094696,0.18939 -0.094696,0.21265 -0.094696,0.14122 -0.046517,0.1412 -0.094696,0.1894 -0.094696,0.18939 -0.071437,0.21265 -0.1412131,0.28243 -0.1179545,0.35553 -0.11795447,0.37712 -0.11795448,0.35386 -0.11961582,0.3306 -0.0930345,0.40205 -0.0946959,0.35386 -0.0714372,0.40204 -0.0946959,0.35387 -0.0465173,0.37878 -0.0481786,0.37712 -0.04651726,0.40205 -0.04817859,0.37878 -0.02325863,0.40037 v 0.40205 L 0,108.42179 l 0.02325863,0.37879 v 0.40204 l 0.02325863,0.40038 0.04817859,0.33061 0.02325864,0.23756 0.0232586,0.21265 0.02492,0.18774 0.0465173,0.23756 0.0465173,0.33061 0.0481786,0.33061 0.0465173,0.21265 0.0481786,0.21265 0.0465173,0.18772 0.0481786,0.21265 0.0930345,0.35553 0.11961582,0.30569 0.0465173,0.18939 0.0714372,0.18939 0.0465173,0.21265 0.0946958,0.21265 0.11795449,0.30735 0.1179544,0.28242 0.071437,0.18939 0.094696,0.21265 0.094696,0.21265 0.069776,0.11796 0.071437,0.14121 0.094696,0.21265 0.094696,0.1894 0.094696,0.1412 0.069776,0.11796 0.094696,0.18939 0.094696,0.16613 0.071437,0.14122 0.1179545,0.18939 0.094696,0.16447 0.1412132,0.18939 0.071437,0.11796 0.1877304,0.26082 0.1893917,0.28243 0.1412131,0.18939 0.1428745,0.16448 0.1179545,0.14287 0.094696,0.11796 0.093034,0.14121 0.1428744,0.14288 0.1412131,0.18773 0.1179545,0.0947 0.1179545,0.14121 0.1428745,0.14288 0.1412131,0.16447 0.094696,0.0947 0.094696,0.0714 0.1412131,0.16447 0.1661332,0.14288 0.1179544,0.11795 0.1179545,0.0947 0.1644718,0.14122 0.1661331,0.1412 0.1412131,0.0947 0.094696,0.11795 0.1644718,0.0947 0.1661331,0.14122 0.1893916,0.14287 0.2591677,0.21265 0.2608289,0.16447 0.1412131,0.0947 0.1893917,0.14121 0.1877304,0.0947 0.1428744,0.11795 0.1412132,0.0714 0.166133,0.0714 0.2126504,0.11795 0.1179545,0.0698 0.1412131,0.0714 0.1644717,0.11796 0.2375703,0.0947 0.1412135,0.0714 0.1179537,0.0698 0.1893924,0.0947 0.2359083,0.0947 0.1661335,0.0714 0.282426,0.0947 0.3073466,0.14121 0.235909,0.0698 0.189391,0.0714 0.212651,0.0482 0.189392,0.0698 0.305685,0.11795 0.332266,0.0714 0.235908,0.0465 0.187731,0.0714 0.212651,0.0465 0.21265,0.0482 0.307346,0.0465 0.355524,0.0482 0.23591,0.0465 0.18773,0.0233 0.21265,0.0249 0.237571,0.0233 0.330605,0.0465 h 0.40038 l 0.402042,0.0233 z"
     id="path5921"
     inkscape:connector-curvature="0" />
  <path
     style="fill:#1f1a17;fill-opacity:1;fill-rule:nonzero;stroke:none;stroke-width:2.25358224"
     d="m 120.73229,0.1419 -2.17323,8.220246 -0.1181,-0.02365 -0.0945,-0.04721 -0.0945,-0.02365 -0.11812,-0.04721 -0.0945,-0.02365 -0.0945,-0.04721 -0.0945,-0.04721 -0.0945,-0.04721 -0.0945,-0.04721 -0.0945,-0.04721 -0.0945,-0.04721 -0.0945,-0.07085 -0.0709,-0.04721 -0.0945,-0.04721 -0.0945,-0.07085 -0.0709,-0.07085 -0.0945,-0.04721 -0.0709,-0.07085 -0.0708,-0.07086 -0.0709,-0.07086 -0.0945,-0.07085 -0.0709,-0.07086 -0.0708,-0.07086 -0.0472,-0.07086 -0.0709,-0.09448 -0.0708,-0.07086 -0.0709,-0.07085 -0.0472,-0.09449 -0.0709,-0.07086 -0.0472,-0.09448 -0.0472,-0.09448 -0.0708,-0.07086 -0.0472,-0.09448 -0.0472,-0.09449 -0.0472,-0.09448 -0.0473,-0.09448 -0.0237,-0.09449 -0.0472,-0.09448 -0.0472,-0.09448 -0.0237,-0.09448 -0.0472,-0.09448 -0.0236,-0.09449 -0.0236,-0.09448 -0.0237,-0.09448 -0.0237,-0.118106 -0.0236,-0.09448 -0.0237,-0.09448 V 4.843014 l -0.0236,-0.09449 V 4.654044 L 115.39364,4.53593 V 4.44145 4.34697 4.228864 4.134384 4.016278 3.921798 l 0.0236,-0.118106 v -0.09448 l 0.0236,-0.118106 0.0237,-0.09448 0.0236,-0.118106 0.0237,-0.09449 0.0237,-0.118114 0.0236,-0.09448 0.0236,-0.118106 0.0472,-0.09448 0.0237,-0.09449 0.0472,-0.118106 0.0472,-0.09448 0.0472,-0.09448 0.0473,-0.09448 0.0472,-0.09448 0.0472,-0.09448 0.0472,-0.09449 0.0472,-0.07086 0.0709,-0.09448 0.0472,-0.09449 0.0709,-0.07085 0.0472,-0.09448 0.0708,-0.07086 0.0709,-0.09448 0.0708,-0.07086 0.0709,-0.07086 0.0708,-0.07086 0.0709,-0.07086 0.0709,-0.07085 0.0709,-0.07086 0.0709,-0.07086 0.0945,-0.07086 0.0708,-0.04721 0.0945,-0.07086 0.0708,-0.04721 0.0945,-0.07086 0.0708,-0.04721 0.0945,-0.04721 0.0945,-0.07086 0.0945,-0.04721 0.0709,-0.02365 0.0945,-0.04721 0.0945,-0.04721 0.0945,-0.04721 0.0945,-0.02365 0.0945,-0.04721 0.11811,-0.02365 0.0945,-0.04721 0.0945,-0.02365 0.0945,-0.02365 0.0945,-0.02365 0.11811,-0.02365 h 0.0945 l 0.0945,-0.02365 0.11811,-0.02365 h 0.0945 0.0945 l 0.11812,-0.02365 h 0.0945 0.11811 0.0945 0.11811 l 0.0945,0.02365 h 0.11811 l 0.0945,0.02365 h 0.1181 l 0.0945,0.02365 0.1181,0.02365 0.0945,0.02365 0.11817,0.02285 m 41.81103,49.817494 -8.40945,1.06297 -0.0709,-0.47243 -0.0708,-0.49605 -0.0709,-0.44881 -0.0945,-0.49605 -0.0709,-0.47242 -0.0945,-0.47243 -0.0945,-0.44881 -0.0709,-0.49605 -0.11812,-0.4488 -0.0945,-0.47243 -0.11811,-0.47243 -0.0945,-0.47242 -0.11811,-0.44882 -0.11811,-0.47242 -0.14173,-0.47243 -0.11811,-0.4488 -0.11812,-0.425191 -0.14172,-0.472424 -0.14174,-0.472424 -0.14173,-0.42519 -0.14173,-0.472424 -0.16536,-0.448811 -0.14173,-0.448803 -0.14173,-0.448803 -0.16536,-0.42519 -0.18897,-0.448802 -0.16536,-0.448803 -0.16535,-0.42519 -0.16536,-0.448803 -0.18897,-0.42519 -0.2126,-0.448803 -0.16536,-0.42519 -0.2126,-0.425182 -0.18896,-0.42519 -0.18898,-0.425181 -0.2126,-0.425182 -0.18898,-0.42519 -0.2126,-0.425182 -0.2126,-0.425181 -0.23622,-0.401569 -0.2126,-0.425182 -0.23622,-0.40156 -0.2126,-0.401569 -0.23622,-0.401561 -0.2126,-0.401568 -0.23621,-0.401561 -0.25984,-0.40156 -0.23623,-0.401569 -0.23622,-0.377939 -0.25984,-0.401561 -0.25985,-0.401569 -0.25984,-0.377939 -0.25984,-0.377939 -0.25984,-0.377948 -0.25984,-0.40156 -0.28346,-0.354327 -0.25986,-0.377939 -0.28346,-0.377939 -0.28346,-0.354318 -0.28346,-0.401569 -0.28347,-0.330697 -0.28346,-0.377939 -0.30709,-0.354326 -0.28347,-0.354318 -0.28346,-0.330697 -0.30709,-0.354327 -0.28346,-0.354318 -0.33071,-0.330697 -0.28346,-0.354326 -0.33072,-0.330697 -0.30708,-0.354318 -0.30708,-0.307084 -0.33072,-0.330697 -0.30708,-0.307075 -0.33071,-0.330706 -0.33071,-0.307075 -0.30708,-0.330697 -0.35434,-0.307076 -0.33071,-0.307084 -0.33071,-0.307075 -0.3307,-0.283455 -0.35433,-0.307084 -0.33071,-0.283454 -0.35433,-0.307076 -0.35434,-0.283454 -0.35432,-0.283455 -0.35433,-0.283462 -0.35433,-0.283455 -0.35434,-0.259833 -0.35433,-0.283454 -0.35433,-0.259842 -0.37795,-0.259833 -0.35433,-0.259834 -0.37795,-0.259833 -0.37796,-0.23622 -0.35432,-0.259833 -0.37796,-0.236212 -0.37796,-0.236212 -0.37794,-0.259842 -0.37796,-0.212591 -0.37795,-0.236212 -0.40158,-0.212591 -0.37795,-0.23622 -0.37796,-0.212583 -0.40157,-0.212599 -0.40157,-0.212591 -0.37795,-0.188969 -0.40158,-0.212591 -0.40158,-0.188978 -0.40157,-0.18897 -0.40157,-0.188969 -0.40158,-0.18897 -0.37795,-0.18897 -0.4252,-0.165356 -0.40157,-0.16534 -0.40158,-0.165357 -0.42519,-0.165349 -0.40158,-0.165348 -0.4252,-0.141727 -0.40157,-0.165349 -0.4252,-0.141727 -0.40157,-0.141727 -0.4252,-0.141736 -0.4252,-0.141727 -0.42519,-0.118106 -0.4252,-0.118106 -0.4252,-0.118106 -0.4252,-0.118106 2.17323,-8.220246 0.51968,0.141728 0.49608,0.141735 0.51968,0.141728 0.49606,0.165348 0.49606,0.165348 0.49607,0.165349 0.51968,0.141727 0.49606,0.18897 0.49606,0.188978 0.49607,0.165348 0.49607,0.212591 0.49606,0.188969 0.49606,0.18897 0.47244,0.212591 0.47244,0.212599 0.49606,0.212591 0.49607,0.212591 0.47244,0.236212 0.47244,0.212591 0.47244,0.259841 0.47244,0.236212 0.47244,0.236212 0.44882,0.236212 0.47244,0.259842 0.47244,0.259833 0.44882,0.259833 0.44882,0.259834 0.47244,0.283454 0.44882,0.283463 0.44882,0.259833 0.42519,0.283454 0.44882,0.307085 0.44882,0.283454 0.4252,0.283454 0.44882,0.307076 0.4252,0.307084 0.42519,0.330697 0.4252,0.307075 0.4252,0.307085 0.4252,0.330696 0.4252,0.307076 0.40156,0.330705 0.40158,0.330697 0.4252,0.354318 0.40157,0.330697 0.40158,0.354326 0.40157,0.330697 0.40157,0.354318 0.37796,0.377948 0.40158,0.354318 0.37795,0.354318 0.40157,0.354318 0.37796,0.377948 0.35432,0.377939 0.40158,0.377947 0.37795,0.37794 0.35433,0.40156 0.37796,0.377948 0.35433,0.40156 0.35433,0.377939 0.35433,0.401569 0.35433,0.401561 0.33071,0.401569 0.35433,0.40156 0.35433,0.425181 0.33071,0.425191 0.33071,0.40156 0.35433,0.448811 0.30709,0.401561 0.3307,0.425181 0.30709,0.425182 0.33071,0.448811 0.30709,0.448811 0.30708,0.425182 0.30709,0.448803 0.30709,0.448811 0.28346,0.448803 0.28346,0.425182 0.3071,0.472432 0.28346,0.448803 0.28346,0.472432 0.28346,0.448803 0.25985,0.472424 0.30708,0.472433 0.25985,0.472424 0.25984,0.472432 0.25984,0.472424 0.25985,0.472433 0.23622,0.496045 0.25984,0.472432 0.23622,0.496046 0.23622,0.472424 0.23622,0.496053 0.23622,0.496045 0.23622,0.496054 0.2126,0.496045 0.2126,0.519675 0.2126,0.472424 0.2126,0.519675 0.2126,0.496045 0.18897,0.496054 0.2126,0.519666 0.16535,0.519667 0.2126,0.519675 0.16535,0.519666 0.18898,0.519675 0.18898,0.519666 0.16535,0.519675 0.16536,0.543288 0.16535,0.519675 0.14173,0.496045 0.16536,0.543296 0.14173,0.543288 0.14173,0.543296 0.14173,0.519666 0.11812,0.543296 0.14172,0.543288 0.11812,0.54329 0.11811,0.51967 0.11811,0.56692 0.1181,0.54328 0.0945,0.5433 0.1181,0.54329 0.0709,0.54329 0.0945,0.5433 0.0945,0.56691 0.0708,0.56691 0.0709,0.56691 m -8.40945,1.06297 8.40945,-1.06297 v 0.0945 l 0.0237,0.1181 v 0.0945 0.11811 0.0945 0.11811 0.0945 0.11811 l -0.0237,0.0945 v 0.11812 l -0.0237,0.0945 v 0.11811 l -0.0236,0.0945 -0.0237,0.0945 -0.0236,0.0945 -0.0236,0.11811 -0.0472,0.0945 -0.0237,0.0945 -0.0237,0.0945 -0.0472,0.0945 -0.0472,0.0945 -0.0236,0.0945 -0.0472,0.0945 -0.0473,0.0945 -0.0472,0.0945 -0.0472,0.0945 -0.0472,0.0709 -0.0472,0.0945 -0.0709,0.0945 -0.0472,0.0708 -0.0708,0.0945 -0.0472,0.0708 -0.0709,0.0945 -0.0708,0.0708 -0.0709,0.0709 -0.0709,0.0709 -0.0709,0.0709 -0.0709,0.0709 -0.0709,0.0709 -0.0709,0.0708 -0.0709,0.0709 -0.0945,0.0708 -0.0709,0.0709 -0.0945,0.0472 -0.0709,0.0709 -0.0945,0.0472 -0.0709,0.0472 -0.0945,0.0472 -0.0945,0.0709 -0.0945,0.0472 -0.0945,0.0472 -0.0945,0.0472 -0.0945,0.0236 -0.0945,0.0472 -0.0945,0.0472 -0.0945,0.0237 -0.11811,0.0472 -0.0945,0.0236 -0.0945,0.0237 -0.1181,0.0237 -0.0945,0.0236 -0.1181,0.0237 -0.0945,0.0236 h -0.1181 l -0.0945,0.0236 h -0.1181 -0.0945 l -0.11811,0.0237 h -0.11812 -0.0945 l -0.11812,-0.0237 h -0.0945 -0.0945 l -0.11812,-0.0236 h -0.0945 l -0.11812,-0.0236 -0.0945,-0.0237 -0.0945,-0.0236 -0.1181,-0.0237 -0.0945,-0.0237 -0.0945,-0.0236 -0.0945,-0.0236 -0.0945,-0.0472 -0.0945,-0.0237 -0.0945,-0.0472 -0.0945,-0.0472 -0.0945,-0.0472 -0.0945,-0.0472 -0.0945,-0.0237 -0.0945,-0.0708 -0.0945,-0.0472 -0.0709,-0.0472 -0.0945,-0.0472 -0.0709,-0.0708 -0.0945,-0.0472 -0.0709,-0.0709 -0.0945,-0.0708 -0.0709,-0.0472 -0.0709,-0.0709 -0.0708,-0.0709 -0.0945,-0.0708 -0.0709,-0.0709 -0.0709,-0.0708 -0.0472,-0.0945 -0.0709,-0.0708 -0.0709,-0.0709 -0.0708,-0.0945 -0.0472,-0.0709 -0.0709,-0.0945 -0.0472,-0.0709 -0.0472,-0.0945 -0.0709,-0.0945 -0.0472,-0.0945 -0.0472,-0.0709 -0.0473,-0.0945 -0.0472,-0.0945 -0.0236,-0.0945 -0.0472,-0.11812 -0.0472,-0.0945 -0.0237,-0.0945 -0.0472,-0.0945 -0.0236,-0.0945 -0.0237,-0.11811 -0.0237,-0.0945 -0.0236,-0.1181 -0.0237,-0.0945 -0.0237,-0.1181 -5.2e-4,-0.0945"
     id="path5923"
     inkscape:connector-curvature="0" />
  <path
     style="fill:#1f1a17;fill-opacity:1;fill-rule:nonzero;stroke:none;stroke-width:2.25358224"
     d="m 261.92129,8.362146 -2.14962,-8.220246 0.0945,-0.02365 0.1181,-0.02365 0.0945,-0.02365 0.11811,-0.02365 h 0.0945 l 0.1181,-0.02365 h 0.0945 L 260.62209,0 h 0.0945 0.1181 0.0945 0.11811 l 0.0945,0.02365 h 0.0945 0.1181 l 0.0945,0.02365 0.0945,0.02365 h 0.11811 l 0.0945,0.02365 0.0945,0.02365 0.0945,0.02365 0.11811,0.02365 0.0945,0.04721 0.0945,0.02365 0.0945,0.04721 0.0945,0.02365 0.0945,0.04721 0.0945,0.04721 0.0945,0.04721 0.0945,0.02365 0.0709,0.04721 0.0945,0.07086 0.0945,0.04721 0.0709,0.04721 0.0945,0.07085 0.0945,0.04721 0.0709,0.07086 0.0709,0.04721 0.0945,0.07086 0.0709,0.07086 0.0709,0.07086 0.0945,0.07086 0.0709,0.07085 0.0709,0.07086 0.0709,0.07086 0.0473,0.07086 0.0709,0.09448 0.0709,0.07086 0.0709,0.09448 0.0472,0.07086 0.0709,0.09448 0.0472,0.09448 0.0472,0.07086 0.0709,0.09449 0.0472,0.09448 0.0473,0.09448 0.0472,0.09448 0.0473,0.09448 0.0236,0.09448 0.0472,0.118106 0.0236,0.09449 0.0473,0.09448 0.0236,0.118106 0.0472,0.09448 0.0236,0.118115 0.0236,0.09448 v 0.118106 l 0.0237,0.09448 0.0236,0.118106 v 0.09448 l 0.0236,0.118106 v 0.09448 0.118106 0.09448 0.118106 0.09448 0.09449 0.118106 l -0.0236,0.09449 v 0.09448 l -0.0236,0.118106 -0.0237,0.09448 -0.0236,0.09448 -0.0236,0.118106 -0.0236,0.09449 -0.0236,0.09448 -0.0237,0.09449 -0.0473,0.09448 -0.0237,0.09448 -0.0472,0.09448 -0.0236,0.09448 -0.0473,0.09448 -0.0472,0.09448 -0.0472,0.09449 -0.0472,0.09448 -0.0472,0.09449 -0.0473,0.07085 -0.0709,0.09448 -0.0473,0.09449 -0.0472,0.07085 -0.0709,0.09449 -0.0709,0.07086 -0.0709,0.07086 -0.0472,0.09448 -0.0709,0.07086 -0.0709,0.07086 -0.0709,0.07086 -0.0709,0.07086 -0.0945,0.07085 -0.0709,0.07086 -0.0708,0.07085 -0.0945,0.04721 -0.0709,0.07085 -0.0945,0.07085 -0.0709,0.04721 -0.0945,0.04721 -0.0945,0.07085 -0.0945,0.04721 -0.0945,0.04721 -0.0945,0.04721 -0.0945,0.04721 -0.0945,0.04721 -0.0945,0.04721 -0.0945,0.02365 -0.0945,0.04721 -0.11811,0.02365 -0.0945,0.04721 -0.11803,0.02445 m -35.55118,42.660223 -8.43309,-1.06297 0.0709,-0.56691 0.0709,-0.56691 0.0945,-0.56691 0.0945,-0.5433 0.0945,-0.54329 0.0945,-0.54329 0.0945,-0.5433 0.11811,-0.54328 0.11812,-0.5433 0.1181,-0.56691 0.11812,-0.51967 0.14172,-0.543293 0.11812,-0.543296 0.14172,-0.543287 0.16536,-0.519675 0.11812,-0.543288 0.16534,-0.519675 0.14174,-0.519666 0.16536,-0.543296 0.18898,-0.519667 0.14172,-0.519675 0.18898,-0.519666 0.18898,-0.519675 0.18897,-0.519666 0.16536,-0.519675 0.18897,-0.519667 0.2126,-0.519666 0.18898,-0.496054 0.2126,-0.496045 0.2126,-0.519675 0.21259,-0.496045 0.2126,-0.496054 0.23622,-0.496045 0.2126,-0.496054 0.23622,-0.496045 0.23622,-0.496053 0.23622,-0.472424 0.23622,-0.496046 0.25984,-0.472432 0.25984,-0.496045 0.23623,-0.472433 0.25984,-0.472424 0.28346,-0.472432 0.25984,-0.472424 0.28348,-0.472433 0.25983,-0.472424 0.28346,-0.448803 0.28348,-0.472432 0.28345,-0.448803 0.28348,-0.448811 0.30707,-0.448803 0.28349,-0.448803 0.30707,-0.448811 0.3071,-0.448803 0.30706,-0.448811 0.30711,-0.425182 0.3307,-0.425181 0.33071,-0.448812 0.30708,-0.425181 0.33071,-0.42519 0.33072,-0.425182 0.33071,-0.40156 0.35433,-0.425191 0.33069,-0.425181 0.35433,-0.377948 0.33071,-0.425181 0.35433,-0.401561 0.35434,-0.401569 0.37794,-0.377939 0.35433,-0.40156 0.35434,-0.401569 0.37797,-0.377939 0.35433,-0.37794 0.40156,-0.377947 0.35433,-0.377939 0.40157,-0.377948 0.35433,-0.354318 0.40159,-0.354318 0.40156,-0.377939 0.4016,-0.354327 0.37794,-0.354318 0.40156,-0.330697 0.4016,-0.354326 0.40156,-0.330697 0.40157,-0.354318 0.4252,-0.330697 0.40157,-0.330705 0.4252,-0.307076 0.42521,-0.330696 0.42519,-0.307085 0.4252,-0.307075 0.42518,-0.330697 0.44883,-0.307084 0.4252,-0.307076 0.44882,-0.283454 0.42519,-0.283454 0.44882,-0.307085 0.44882,-0.283454 0.44883,-0.259833 0.44881,-0.283463 0.44882,-0.283454 0.44882,-0.259834 0.47244,-0.259833 0.44882,-0.259833 0.47245,-0.259842 0.44882,-0.236212 0.49606,-0.236212 0.44882,-0.236212 0.47244,-0.259841 0.47244,-0.212591 0.49606,-0.236212 0.47244,-0.212591 0.49606,-0.212591 0.47244,-0.212599 0.47244,-0.212591 0.51968,-0.18897 0.47244,-0.188969 0.49608,-0.212591 0.49606,-0.165348 0.49606,-0.188978 0.49606,-0.18897 0.51969,-0.141727 0.49606,-0.165349 0.51968,-0.165348 0.49605,-0.165348 0.5197,-0.141728 0.49607,-0.141735 0.51967,-0.141728 2.14962,8.220246 -0.4252,0.118106 -0.4252,0.118106 -0.42519,0.118106 -0.42521,0.118106 -0.40156,0.141727 -0.42521,0.141736 -0.42518,0.141727 -0.42521,0.141727 -0.40157,0.165349 -0.4252,0.141727 -0.40156,0.165348 -0.42521,0.165349 -0.40157,0.165357 -0.40158,0.16534 -0.42519,0.165356 -0.37797,0.18897 -0.40157,0.18897 -0.40156,0.188969 -0.40158,0.18897 -0.40157,0.188978 -0.40159,0.212591 -0.37796,0.188969 -0.40156,0.212591 -0.40158,0.212599 -0.37796,0.212583 -0.37795,0.23622 -0.37794,0.212591 -0.40159,0.236212 -0.37795,0.212591 -0.37794,0.259842 -0.37795,0.236212 -0.37795,0.236212 -0.35434,0.259833 -0.37797,0.23622 -0.37794,0.259833 -0.35433,0.259834 -0.37795,0.259833 -0.35434,0.259842 -0.35432,0.283454 -0.35434,0.259833 -0.35432,0.283455 -0.35434,0.283462 -0.35433,0.283455 -0.35432,0.283454 -0.33072,0.307076 -0.35433,0.283454 -0.33071,0.307084 -0.35433,0.283455 -0.3307,0.307075 -0.33071,0.307084 -0.33072,0.307076 -0.33071,0.330697 -0.33071,0.307075 -0.33069,0.330706 -0.30709,0.307075 -0.3071,0.330697 -0.33069,0.330705 -0.3071,0.330697 -0.33071,0.330697 -0.28345,0.354326 -0.33072,0.330697 -0.28345,0.354318 -0.30709,0.330697 -0.28347,0.354327 -0.30709,0.354318 -0.28345,0.354326 -0.28348,0.377939 -0.28346,0.354318 -0.28348,0.377948 -0.28345,0.354318 -0.25984,0.354318 -0.28348,0.40156 -0.28346,0.377948 -0.23621,0.377939 -0.28346,0.377948 -0.25986,0.377939 -0.25984,0.377939 -0.23622,0.377948 -0.25984,0.40156 -0.25984,0.401561 -0.23621,0.401569 -0.23623,0.40156 -0.23621,0.401561 -0.23623,0.401568 -0.23621,0.401561 -0.21261,0.401569 -0.23622,0.40156 -0.2126,0.425182 -0.21261,0.401569 -0.21258,0.425181 -0.2126,0.425182 -0.2126,0.42519 -0.21261,0.425182 -0.18896,0.425181 -0.18899,0.42519 -0.18898,0.425182 -0.18896,0.42519 -0.21261,0.448803 -0.16534,0.42519 -0.18899,0.448803 -0.16535,0.42519 -0.16536,0.448803 -0.16535,0.425181 -0.16537,0.448811 -0.16534,0.448803 -0.14173,0.448803 -0.14173,0.448811 -0.16536,0.472424 -0.14173,0.448812 -0.14173,0.448802 -0.14173,0.448812 -0.1181,0.448803 -0.14175,0.472425 -0.11812,0.47243 -0.1181,0.4488 -0.11812,0.44882 -0.0945,0.47242 -0.11811,0.47243 -0.0945,0.44881 -0.0945,0.47242 -0.0945,0.49605 -0.0945,0.44881 -0.0709,0.47243 -0.0945,0.47242 -0.0945,0.49605 -0.0472,0.44881 -0.0709,0.47242 -0.0709,0.49606 m -8.43309,-1.06297 8.43309,1.06297 -0.0237,0.0945 -0.0237,0.11811 -0.0236,0.0945 -0.0237,0.11811 -0.0237,0.0945 -0.0236,0.1181 -0.0237,0.0945 -0.0237,0.0945 -0.0472,0.0945 -0.0473,0.0945 -0.0237,0.1181 -0.0472,0.0945 -0.0473,0.0945 -0.0472,0.0945 -0.0473,0.0708 -0.0472,0.0945 -0.0472,0.0945 -0.0709,0.0945 -0.0472,0.0709 -0.0709,0.0945 -0.0472,0.0708 -0.0709,0.0945 -0.0708,0.0709 -0.0472,0.0709 -0.0709,0.0945 -0.0708,0.0709 -0.0709,0.0708 -0.0709,0.0709 -0.0945,0.0709 -0.0708,0.0709 -0.0709,0.0472 -0.0709,0.0709 -0.0945,0.0709 -0.0709,0.0472 -0.0945,0.0709 -0.0945,0.0472 -0.0708,0.0472 -0.0945,0.0472 -0.0945,0.0709 -0.0945,0.0236 -0.0945,0.0472 -0.0709,0.0472 -0.0945,0.0472 -0.0945,0.0472 -0.11811,0.0236 -0.0945,0.0472 -0.0945,0.0237 -0.0945,0.0236 -0.0945,0.0236 -0.0945,0.0237 -0.11812,0.0237 -0.0945,0.0236 -0.0945,0.0237 h -0.11811 l -0.0945,0.0236 h -0.11812 -0.0945 l -0.11812,0.0236 h -0.0945 -0.11812 l -0.0945,-0.0236 h -0.11812 -0.0945 l -0.11812,-0.0236 h -0.1181 l -0.0945,-0.0237 -0.11811,-0.0236 -0.0945,-0.0237 -0.11811,-0.0237 -0.0945,-0.0236 -0.0945,-0.0236 -0.0945,-0.0472 -0.11811,-0.0237 -0.0945,-0.0472 -0.0945,-0.0472 -0.0945,-0.0237 -0.0945,-0.0472 -0.0945,-0.0472 -0.0945,-0.0472 -0.0945,-0.0709 -0.0709,-0.0472 -0.0945,-0.0472 -0.0945,-0.0472 -0.0709,-0.0709 -0.0945,-0.0472 -0.0709,-0.0709 -0.0945,-0.0709 -0.0709,-0.0708 -0.0708,-0.0709 -0.0709,-0.0708 -0.0709,-0.0709 -0.0709,-0.0709 -0.0709,-0.0709 -0.0709,-0.0709 -0.0709,-0.0709 -0.0472,-0.0945 -0.0709,-0.0709 -0.0709,-0.0945 -0.0472,-0.0709 -0.0472,-0.0945 -0.0709,-0.0945 -0.0472,-0.0708 -0.0472,-0.0945 -0.0472,-0.0945 -0.0472,-0.0945 -0.0472,-0.0945 -0.0237,-0.0945 -0.0473,-0.0945 -0.0237,-0.0945 -0.0472,-0.0945 -0.0237,-0.0945 -0.0236,-0.0945 -0.0472,-0.1181 -0.0237,-0.0945 -0.0236,-0.0945 v -0.0945 l -0.0237,-0.1181 -0.0237,-0.0945 v -0.11811 l -0.0236,-0.0945 v -0.11811 -0.0945 -0.11811 -0.0945 -0.11811 -0.0945 l 0.0236,-0.11811 -3.5e-4,-0.0945"
     id="path5925"
     inkscape:connector-curvature="0" />
  <path
     style="fill:#1f1a17;fill-opacity:1;fill-rule:nonzero;stroke:none;stroke-width:2.25358224"
     d="m 162.21261,68.006138 h -6.02362 v -0.0709 l 0.0236,-0.0709 v -0.0709 -0.0945 -0.0709 l 0.0237,-0.0709 v -0.0709 l 0.0237,-0.0708 0.0236,-0.0709 v -0.0708 l 0.0237,-0.0709 0.0237,-0.0945 0.0236,-0.0472 0.0237,-0.0709 0.0237,-0.0708 0.0236,-0.0709 0.0472,-0.0708 0.0237,-0.0709 0.0237,-0.0709 0.0472,-0.0472 0.0237,-0.0709 0.0472,-0.0708 0.0236,-0.0472 0.0472,-0.0708 0.0472,-0.0472 0.0472,-0.0709 0.0237,-0.0472 0.0472,-0.0708 0.0472,-0.0472 0.0473,-0.0472 0.0472,-0.0473 0.0709,-0.0709 0.0472,-0.0472 0.0472,-0.0472 0.0472,-0.0472 0.0709,-0.0472 0.0472,-0.0472 0.0472,-0.0472 0.0709,-0.0236 0.0472,-0.0472 0.14173,-0.0709 0.11811,-0.0945 0.0709,-0.0237 0.0472,-0.0236 0.0709,-0.0472 0.0709,-0.0237 0.14173,-0.0472 0.14173,-0.0473 0.14174,-0.0472 0.14172,-0.0236 0.0709,-0.0236 h 0.0709 l 0.0709,-0.0237 h 0.0945 l 0.14173,-0.0237 h 0.16536 0.14173 l 0.16535,0.0237 h 0.0709 l 0.0708,0.0237 h 0.0709 l 0.0709,0.0236 0.14173,0.0236 0.14173,0.0472 0.14174,0.0473 0.14173,0.0472 0.14173,0.0709 0.11811,0.0472 0.11811,0.0945 0.14173,0.0709 0.11811,0.0709 0.0945,0.0945 0.11811,0.0945 0.11811,0.0945 0.0945,0.11811 0.0945,0.0945 0.0709,0.11811 0.0945,0.11811 0.0709,0.1181 0.0709,0.14174 0.0709,0.1181 0.0709,0.14173 0.0472,0.14173 0.0472,0.1181 0.0472,0.16535 0.0237,0.14173 0.0237,0.0708 v 0.0709 l 0.0236,0.0709 v 0.0709 l 0.0237,0.16535 3.6e-4,0.14125"
     id="path6702"
     inkscape:connector-curvature="0" />
  <path
     style="fill:#1f1a17;fill-opacity:1;fill-rule:nonzero;stroke:none;stroke-width:2.25358224"
     d="m 156.18899,90.233858 v -7.40923 -7.4092 -7.40929 h 6.02362 v 7.40923 7.4092 7.40929 h -6.02362"
     id="path6700"
     inkscape:connector-curvature="0" />
  <path
     style="fill:#1f1a17;fill-opacity:1;fill-rule:nonzero;stroke:none;stroke-width:2.25358224"
     d="m 156.18899,90.235088 h 6.02362 v 0.16535 l -0.0236,0.14173 v 0.0945 l -0.0237,0.0709 v 0.0709 l -0.0237,0.0709 -0.0236,0.14172 -0.0472,0.14173 -0.0472,0.14174 -0.0472,0.14172 -0.0236,0.0709 -0.0472,0.0709 -0.0237,0.0472 -0.0472,0.0709 -0.0709,0.1181 -0.0709,0.11811 -0.0473,0.0709 -0.0472,0.0709 -0.0237,0.0472 -0.0472,0.0472 -0.0472,0.0709 -0.0472,0.0472 -0.0472,0.0472 -0.0472,0.0472 -0.0708,0.0472 -0.0472,0.0472 -0.0473,0.0709 -0.0709,0.0236 -0.0472,0.0472 -0.0472,0.0472 -0.0709,0.0472 -0.0472,0.0472 -0.0709,0.0472 -0.0709,0.0236 -0.0473,0.0472 -0.0709,0.0237 -0.0708,0.0472 -0.0472,0.0236 -0.0709,0.0237 -0.0708,0.0472 -0.0709,0.0236 -0.0709,0.0237 -0.0709,0.0237 -0.0709,0.0236 -0.0709,0.0237 -0.0709,0.0236 h -0.0709 l -0.0709,0.0236 -0.0709,0.0237 h -0.0708 l -0.0709,0.0237 h -0.0709 -0.0945 -0.0709 -0.0709 -0.0708 -0.0945 -0.0709 -0.0709 -0.0708 -0.0945 l -0.0709,-0.0237 h -0.0709 l -0.0709,-0.0237 -0.0709,-0.0236 h -0.0709 l -0.0709,-0.0236 -0.0709,-0.0237 -0.0709,-0.0236 -0.0708,-0.0237 -0.0709,-0.0237 -0.0709,-0.0236 -0.0709,-0.0472 -0.0709,-0.0237 -0.0472,-0.0236 -0.0709,-0.0472 -0.0709,-0.0237 -0.0472,-0.0472 -0.0709,-0.0236 -0.0708,-0.0472 -0.0472,-0.0472 -0.0709,-0.0472 -0.0472,-0.0472 -0.0473,-0.0472 -0.0709,-0.0236 -0.0472,-0.0709 -0.0472,-0.0472 -0.0473,-0.0472 -0.0709,-0.0472 -0.0472,-0.0472 -0.0472,-0.0472 -0.0472,-0.0709 -0.0473,-0.0472 -0.0236,-0.0472 -0.0472,-0.0709 -0.0472,-0.0709 -0.0472,-0.0472 -0.0236,-0.0709 -0.0472,-0.0472 -0.0237,-0.0709 -0.0472,-0.0709 -0.0236,-0.0472 -0.0237,-0.0709 -0.0472,-0.0709 -0.0236,-0.0709 -0.0236,-0.0709 -0.0237,-0.0709 -0.0237,-0.0709 -0.0236,-0.0709 -0.0237,-0.0709 v -0.0709 l -0.0237,-0.0708 -0.0236,-0.0709 v -0.0709 l -0.0237,-0.0709 v -0.0945 -0.0709 -0.0709 l -0.0237,-0.0709 -8.1e-4,-0.0947"
     id="path5927"
     inkscape:connector-curvature="0" />
  <path
     style="fill:#1f1a17;fill-opacity:1;fill-rule:nonzero;stroke:none;stroke-width:2.25358224"
     d="m 169.7008,82.131718 v -5.99982 h 0.14173 0.16536 l 0.0709,0.0236 h 0.0708 l 0.0709,0.0237 h 0.0709 l 0.16535,0.0472 0.14174,0.0237 0.14173,0.0472 0.11811,0.0709 0.14173,0.0472 0.11811,0.0709 0.14173,0.0709 0.11812,0.0708 0.11811,0.0945 0.1181,0.0945 0.0945,0.0945 0.11811,0.0945 0.0945,0.0945 0.0945,0.1181 0.0945,0.11811 0.0709,0.11811 0.0709,0.11811 0.0945,0.11811 0.0473,0.14172 0.0709,0.11811 0.0472,0.14173 0.0472,0.14172 0.0472,0.14173 0.0237,0.14173 0.0236,0.0709 v 0.0709 l 0.0237,0.0945 v 0.0709 l 0.0237,0.14173 v 0.16534 0.14173 l -0.0237,0.16535 v 0.0709 l -0.0237,0.0709 v 0.0709 l -0.0236,0.0709 -0.0237,0.16535 -0.0472,0.14173 -0.0472,0.14172 -0.0472,0.11811 -0.0237,0.0708 -0.0472,0.0709 -0.0237,0.0709 -0.0236,0.0473 -0.0945,0.14172 -0.0709,0.11811 -0.0472,0.0709 -0.0237,0.0472 -0.0472,0.0472 -0.0472,0.0709 -0.0472,0.0472 -0.0472,0.0472 -0.0472,0.0709 -0.0472,0.0472 -0.0709,0.0472 -0.0472,0.0472 -0.0472,0.0472 -0.0472,0.0472 -0.0708,0.0472 -0.0472,0.0472 -0.0709,0.0472 -0.0472,0.0236 -0.0709,0.0473 -0.0472,0.0472 -0.0709,0.0237 -0.0709,0.0472 -0.0472,0.0237 -0.0709,0.0472 -0.0709,0.0237 -0.0709,0.0237 -0.0709,0.0236 -0.0473,0.0237 -0.0709,0.0237 -0.0709,0.0236 -0.0709,0.0236 -0.0708,0.0237 -0.0945,0.0237 h -0.0709 l -0.0709,0.0236 -0.0708,0.0237 h -0.0709 -0.0709 l -0.0709,0.0237 h -0.0945 -0.0709 l -0.0714,2.2e-4"
     id="path6696"
     inkscape:connector-curvature="0" />
  <path
     style="fill:#1f1a17;fill-opacity:1;fill-rule:nonzero;stroke:none;stroke-width:2.25358224"
     d="m 148.7008,76.131898 h 6.99999 6.99996 7.00005 v 5.99982 h -6.99999 -6.99996 -7.00005 v -5.99982"
     id="path6694"
     inkscape:connector-curvature="0" />
  <path
     style="fill:#1f1a17;fill-opacity:1;fill-rule:nonzero;stroke:none;stroke-width:2.25358224"
     d="m 148.70017,76.131898 v 5.99982 h -0.0709 -0.0709 -0.0709 l -0.0945,-0.0236 h -0.0709 -0.0709 l -0.0709,-0.0236 -0.0709,-0.0237 h -0.0709 l -0.0708,-0.0236 -0.0709,-0.0237 -0.0709,-0.0237 -0.0709,-0.0236 -0.0709,-0.0237 -0.0709,-0.0237 -0.0709,-0.0236 -0.0709,-0.0237 -0.0709,-0.0237 -0.0709,-0.0472 -0.0472,-0.0237 -0.0709,-0.0472 -0.0709,-0.0237 -0.0472,-0.0472 -0.0709,-0.0472 -0.0473,-0.0236 -0.0709,-0.0472 -0.0472,-0.0472 -0.0709,-0.0472 -0.0472,-0.0472 -0.0472,-0.0472 -0.0472,-0.0472 -0.0709,-0.0472 -0.0473,-0.0472 -0.0472,-0.0708 -0.0472,-0.0472 -0.0472,-0.0472 -0.0472,-0.0709 -0.0472,-0.0472 -0.0237,-0.0472 -0.0473,-0.0709 -0.0472,-0.0708 -0.0236,-0.0472 -0.0472,-0.0709 -0.0472,-0.0709 -0.0237,-0.0472 -0.0236,-0.0709 -0.0473,-0.0709 -0.0236,-0.0709 -0.0236,-0.0472 -0.0237,-0.0709 -0.0237,-0.0709 -0.0236,-0.0709 -0.0237,-0.0709 -0.0237,-0.0709 -0.0236,-0.0708 v -0.0945 l -0.0237,-0.0709 v -0.0709 l -0.0237,-0.0708 v -0.0709 -0.0709 l -0.0236,-0.0945 v -0.0709 -0.0709 -0.0709 -0.0945 l 0.0236,-0.0709 v -0.0709 -0.0709 l 0.0237,-0.0945 v -0.0709 l 0.0237,-0.0709 v -0.0708 l 0.0236,-0.0709 0.0237,-0.0709 0.0237,-0.0709 0.0236,-0.0709 0.0237,-0.0709 0.0237,-0.0709 0.0236,-0.0709 0.0236,-0.0709 0.0473,-0.0472 0.0236,-0.0709 0.0237,-0.0709 0.0472,-0.0472 0.0472,-0.0709 0.0236,-0.0709 0.0472,-0.0472 0.0473,-0.0709 0.0237,-0.0472 0.0472,-0.0709 0.0472,-0.0472 0.0472,-0.0472 0.0472,-0.0709 0.0472,-0.0473 0.0473,-0.0472 0.0709,-0.0472 0.0472,-0.0473 0.0472,-0.0472 0.0472,-0.0473 0.0709,-0.0472 0.0472,-0.0472 0.0709,-0.0473 0.0473,-0.0472 0.1181,-0.0709 0.14174,-0.0709 0.0472,-0.0237 0.0708,-0.0472 0.0709,-0.0237 0.0709,-0.0236 0.14173,-0.0709 0.14174,-0.0472 0.14173,-0.0236 0.14173,-0.0472 h 0.0709 l 0.0709,-0.0237 h 0.0708 l 0.0709,-0.0236 h 0.16536 l 0.14155,-8.6e-4"
     id="path5929"
     inkscape:connector-curvature="0" />
  <path
     style="fill:#1f1a17;fill-opacity:1;fill-rule:nonzero;stroke:none;stroke-width:2.25358224"
     d="m 233.48033,82.108098 v -5.9762 h 0.14173 l 0.14173,0.0236 0.16537,0.0237 0.14173,0.0237 0.14173,0.0236 0.14172,0.0472 0.14173,0.0472 0.14175,0.0472 0.11811,0.0709 0.14173,0.0472 0.11811,0.0945 0.11811,0.0708 0.11811,0.0709 0.11811,0.0945 0.11811,0.0945 0.0945,0.0945 0.0945,0.11812 0.0945,0.0945 0.0945,0.11811 0.0945,0.11811 0.0709,0.11811 0.0709,0.11811 0.0709,0.14172 0.0472,0.11811 0.0472,0.14173 0.0709,0.14173 0.0237,0.14173 0.0473,0.14173 0.0237,0.16534 0.0236,0.14173 v 0.14173 0.16536 0.14172 0.16534 l -0.0236,0.14174 -0.0237,0.14173 -0.0473,0.16534 -0.0237,0.14173 -0.0709,0.11811 -0.0472,0.14172 -0.0472,0.14173 -0.0709,0.11812 -0.0709,0.14172 -0.0709,0.11811 -0.0945,0.11811 -0.0945,0.0945 -0.0472,0.0709 -0.0473,0.0472 -0.0472,0.0472 -0.0472,0.0472 -0.0945,0.11811 -0.11812,0.0945 -0.0473,0.0472 -0.0709,0.0237 -0.0473,0.0472 -0.0709,0.0472 -0.0473,0.0472 -0.0708,0.0237 -0.0709,0.0472 -0.0472,0.0236 -0.0708,0.0472 -0.0709,0.0237 -0.0472,0.0237 -0.0709,0.0472 -0.0709,0.0237 -0.0709,0.0236 -0.0709,0.0236 -0.0708,0.0237 -0.0709,0.0237 -0.0709,0.0236 h -0.0709 l -0.0709,0.0237 -0.0709,0.0237 h -0.0709 l -0.0709,0.0236 h -0.0945 -0.0709 -0.0709 -0.0709 l -0.071,6e-5"
     id="path6708"
     inkscape:connector-curvature="0" />
  <path
     style="fill:#1f1a17;fill-opacity:1;fill-rule:nonzero;stroke:none;stroke-width:2.25358224"
     d="m 209.78742,76.131898 h 7.89763 7.8976 7.89768 v 5.9762 h -7.89762 -7.8976 -7.89769 v -5.9762"
     id="path6706"
     inkscape:connector-curvature="0" />
  <path
     style="fill:#1f1a17;fill-opacity:1;fill-rule:nonzero;stroke:none;stroke-width:2.25358224"
     d="m 209.78685,76.131898 v 5.9762 h -0.0708 -0.0945 -0.0709 -0.0709 -0.0709 l -0.0709,-0.0236 h -0.0945 l -0.0709,-0.0237 -0.0709,-0.0236 h -0.0709 l -0.0708,-0.0236 -0.0709,-0.0237 -0.0709,-0.0237 -0.0709,-0.0236 -0.0709,-0.0237 -0.0472,-0.0237 -0.0709,-0.0472 -0.0709,-0.0236 -0.0709,-0.0237 -0.0709,-0.0472 -0.0473,-0.0236 -0.0709,-0.0472 -0.0472,-0.0237 -0.0709,-0.0472 -0.0472,-0.0472 -0.0709,-0.0472 -0.0472,-0.0237 -0.0708,-0.0472 -0.0473,-0.0472 -0.0472,-0.0472 -0.0709,-0.0472 -0.0472,-0.0709 -0.0473,-0.0472 -0.0472,-0.0472 -0.0472,-0.0472 -0.0472,-0.0709 -0.0472,-0.0472 -0.0472,-0.0472 -0.0237,-0.0708 -0.0472,-0.0472 -0.0472,-0.0709 -0.0472,-0.0472 -0.0236,-0.0709 -0.0472,-0.0709 -0.0237,-0.0472 -0.0236,-0.0709 -0.0472,-0.0709 -0.0237,-0.0709 -0.0236,-0.0708 -0.0237,-0.0709 -0.0236,-0.0472 -0.0236,-0.0709 -0.0237,-0.0709 -0.0237,-0.0709 -0.0236,-0.0945 v -0.0709 l -0.0237,-0.0709 v -0.0709 l -0.0237,-0.0709 v -0.0709 -0.0709 l -0.0236,-0.0945 v -0.0708 -0.0709 -0.0709 -0.0945 l 0.0236,-0.0708 v -0.0709 -0.0709 l 0.0237,-0.0709 v -0.0945 l 0.0237,-0.0709 v -0.0708 l 0.0236,-0.0709 0.0237,-0.0709 0.0237,-0.0709 0.0236,-0.0709 0.0236,-0.0709 0.0237,-0.0709 0.0236,-0.0708 0.0237,-0.0472 0.0472,-0.0709 0.0236,-0.0709 0.0237,-0.0709 0.0472,-0.0472 0.0236,-0.0709 0.0472,-0.0472 0.0472,-0.0709 0.0472,-0.0472 0.0237,-0.0709 0.0472,-0.0472 0.0472,-0.0709 0.0945,-0.0945 0.0945,-0.11811 0.0472,-0.0472 0.0709,-0.0472 0.0472,-0.0472 0.0473,-0.0472 0.1181,-0.0945 0.11812,-0.0708 0.1181,-0.0709 0.11812,-0.0945 0.14173,-0.0472 0.14173,-0.0709 0.11811,-0.0472 0.14173,-0.0472 0.14174,-0.0472 0.14173,-0.0237 0.16535,-0.0236 0.14173,-0.0236 0.14174,-0.0237 0.16497,-10e-4"
     id="path5931"
     inkscape:connector-curvature="0" />
  <path
     style="fill:#1f1a17;fill-opacity:1;fill-rule:nonzero;stroke:none;stroke-width:2.25358224"
     d="m 327.56696,221.52151 0.87403,-0.51967 0.87399,-0.49605 0.82677,-0.44881 0.82676,-0.42518 0.77955,-0.40156 0.75591,-0.35433 0.73226,-0.33069 0.70868,-0.28346 0.68503,-0.25984 0.63783,-0.21259 0.61417,-0.18897 0.59053,-0.14173 0.54328,-0.1181 0.51972,-0.0945 0.47242,-0.0472 0.44883,-0.0236 0.54332,0.0236 0.54331,0.0472 0.49605,0.0472 0.49606,0.0945 0.47242,0.1181 0.44883,0.11811 0.42523,0.16535 0.40154,0.18897 0.37797,0.2126 0.37794,0.23621 0.33071,0.25983 0.33072,0.28345 0.28345,0.30709 0.28349,0.3307 0.25982,0.35432 0.23623,0.37794 0.2362,0.40156 0.21263,0.47243 0.18895,0.47243 0.18899,0.54329 0.16534,0.56691 0.14174,0.61415 0.14175,0.63779 0.11811,0.70864 0.11808,0.70864 0.0945,0.77951 0.0709,0.80311 0.0708,0.85039 0.0472,0.8976 0.0238,0.92124 0.0235,0.96848 0.0235,0.99209 -0.0235,1.32279 v 1.29919 l -0.0473,1.27555 -0.0472,1.25193 -0.0472,1.22832 -0.0945,1.22831 -0.0709,1.20468 -0.0945,1.18108 -0.11812,1.15744 -0.14173,1.13384 -0.14172,1.1102 -0.14175,1.11021 -0.16534,1.06295 -0.18897,1.06296 -0.2126,1.03934 -0.189,1.01573 -0.23619,0.9921 -0.23623,0.94486 -0.23623,0.8976 -0.23623,0.87398 -0.25983,0.82675 -0.25982,0.77952 -0.25986,0.75589 -0.28349,0.70864 -0.28345,0.66139 -0.28346,0.63778 -0.30708,0.56691 -0.30709,0.54329 -0.30708,0.51968 -0.33071,0.47242 -0.33072,0.42518 -0.33071,0.37795 -0.49605,0.49606 -0.54332,0.4488 -0.54331,0.4488 -0.59054,0.4488 -0.59054,0.42518 -0.63783,0.40157 -0.68499,0.40156 -0.68506,0.37795 -0.73228,0.35431 -0.75591,0.35433 -0.77952,0.33069 -0.80316,0.3071 -0.85041,0.30707 -0.85039,0.28346 -0.89763,0.25984 -0.94488,0.25983 -0.96851,0.2362 -0.96851,0.23622 -1.01574,0.2126 -1.063,0.18896 -1.06299,0.18897 -1.08659,0.16534 -1.13386,0.14176 -1.1575,0.14172 -1.18111,0.11809 -1.20471,0.0945 -1.25198,0.0945 -1.25195,0.0709 -1.29922,0.0473 -1.32282,0.0472 -1.34648,0.0236 h -1.37006 l -1.67718,-0.0236 -1.65355,-0.0237 -1.65354,-0.0709 -1.60629,-0.0945 -1.6063,-0.11812 -1.55905,-0.14172 -1.55906,-0.16535 -1.53543,-0.18898 -1.51182,-0.21258 -1.48819,-0.23622 -1.46457,-0.25985 -1.46456,-0.30707 -1.41732,-0.30707 -1.41731,-0.35433 -1.37009,-0.35433 -1.37009,-0.40154 -1.34645,-0.42519 -1.32283,-0.44882 -1.32283,-0.47242 -1.2756,-0.49606 -1.25197,-0.51965 -1.25196,-0.5433 -1.22836,-0.56691 -1.1811,-0.61416 -1.18111,-0.61415 -1.15748,-0.66141 -1.13384,-0.6614 -1.13387,-0.70864 -1.08661,-0.73225 -1.063,-0.73228 -1.06298,-0.7795 -1.03938,-0.80313 -0.99212,-0.82675 -0.99214,-0.85037 -0.94488,-0.85036 -0.89762,-0.87401 -0.89765,-0.8976 -0.82677,-0.8976 -0.82677,-0.92125 -0.77952,-0.94485 -0.75592,-0.94486 -0.70866,-0.96848 -0.70866,-0.9921 -0.63778,-1.01571 -0.63781,-1.01573 -0.59056,-1.01571 -0.56691,-1.06297 -0.5197,-1.06295 -0.49606,-1.08659 -0.44882,-1.08658 -0.44882,-1.13383 -0.40157,-1.13381 -0.35433,-1.13383 -0.33072,-1.15746 -0.30706,-1.18106 -0.28348,-1.2047 -0.23622,-1.20469 -0.2126,-1.22832 -0.16535,-1.25193 -0.14173,-1.25194 -0.11811,-1.27555 -0.0709,-1.29917 -0.0472,-1.29918 -0.0236,-1.32279 0.0236,-1.34642 0.0472,-1.3228 0.0709,-1.32279 0.11811,-1.29919 0.14173,-1.29917 0.18899,-1.27555 0.21257,-1.27556 0.25987,-1.27555 0.25983,-1.25193 0.30708,-1.25194 0.35432,-1.25193 0.37798,-1.22832 0.40156,-1.20469 0.44882,-1.22831 0.47245,-1.18106 0.51967,-1.20469 0.5197,-1.18107 0.56692,-1.15746 0.61418,-1.15745 0.63779,-1.13382 0.66143,-1.13383 0.70866,-1.13382 0.73228,-1.11021 0.75589,-1.1102 0.80316,-1.08659 0.82677,-1.06296 0.87401,-1.08658 0.89764,-1.03935 0.92127,-1.03934 0.94488,-1.03933 0.99212,-1.01572 1.03937,-1.01572 1.20472,-1.15745 1.22836,-1.1102 1.25196,-1.08659 1.29921,-1.03934 1.29921,-1.01572 1.34647,-0.96847 1.37007,-0.94486 1.39371,-0.92124 1.41732,-0.87399 1.44094,-0.85036 1.48819,-0.80313 1.48818,-0.77951 1.53544,-0.75589 1.55906,-0.70863 1.58267,-0.68503 1.60631,-0.63777 1.62991,-0.59054 1.62992,-0.56691 1.65355,-0.54329 1.65354,-0.47243 1.67716,-0.44881 1.70081,-0.42518 1.70077,-0.35433 1.7008,-0.33069 1.7244,-0.30708 1.74803,-0.23621 1.74804,-0.2126 1.77166,-0.18897 1.77165,-0.14173 1.77166,-0.0945 1.81888,-0.0472 1.79527,-0.0237 h 0.77954 l 0.7559,0.0237 0.7323,0.0237 0.70866,0.0472 0.6614,0.0472 0.66143,0.0709 0.61417,0.0945 0.61417,0.0945 0.56694,0.0945 0.54331,0.11811 0.49606,0.14173 0.49605,0.14173 0.47246,0.14173 0.4252,0.18897 0.42516,0.16535 0.37797,0.18897 0.35431,0.21259 0.33072,0.23622 0.30711,0.23621 0.30705,0.25983 0.25986,0.25985 0.23623,0.28345 0.23623,0.30708 0.18897,0.30707 0.16534,0.3307 0.16538,0.3307 0.11808,0.35432 0.0945,0.37795 0.0945,0.37794 0.0472,0.40156 0.0472,0.42519 v 0.42518 0.40156 l -0.0472,0.44881 -0.0472,0.42518 -0.0709,0.47244 -0.0945,0.47242 -0.0945,0.49605 -0.14174,0.51967 -0.14171,0.51968 -0.16534,0.54328 -0.2126,0.54329 -0.21263,0.59054 -0.2362,0.56692 -0.25986,0.61415 -0.25982,0.59054 -0.30708,0.63777 -0.30712,0.63778 -0.73229,-0.25983 -0.70865,-0.25985 -0.73228,-0.23621 -0.73228,-0.21259 -0.75592,-0.18897 -0.7795,-0.18898 -0.77955,-0.16534 -0.7795,-0.14173 -0.80316,-0.11811 -0.82677,-0.1181 -0.85039,-0.0945 -0.87403,-0.0709 -0.89762,-0.0472 -0.92126,-0.0472 -0.9449,-0.0237 h -0.96849 -1.29922 l -1.29921,0.0472 -1.27559,0.0472 -1.2756,0.0945 -1.25197,0.0945 -1.22834,0.14173 -1.20472,0.14172 -1.20473,0.16536 -1.20474,0.18897 -1.1811,0.23621 -1.15746,0.23621 -1.13387,0.25984 -1.13386,0.30707 -1.11023,0.30709 -1.11023,0.33069 -1.08663,0.35432 -1.08661,0.37795 -1.03937,0.40156 -1.03936,0.42519 -1.03937,0.4488 -1.01576,0.47243 -0.99212,0.49605 -0.99214,0.51967 -0.96849,0.54329 -0.94489,0.56691 -0.94488,0.59054 -0.92127,0.61416 -0.92124,0.61415 -0.89764,0.6614 -0.87401,0.68502 -0.87403,0.70864 -0.85039,0.70864 -0.82677,0.75589 -0.80316,0.75588 -0.7795,0.77951 -0.75593,0.7795 -0.70866,0.77951 -0.70866,0.80313 -0.66141,0.82675 -0.66142,0.82674 -0.61417,0.85037 -0.59055,0.87399 -0.56694,0.874 -0.54331,0.87399 -0.51967,0.89761 -0.49607,0.92123 -0.44882,0.92124 -0.44882,0.92123 -0.40157,0.96848 -0.37794,0.94485 -0.35434,0.9921 -0.33071,0.9921 -0.30709,0.99209 -0.28346,1.01572 -0.23622,1.01572 -0.23622,1.03935 -0.18899,1.06296 -0.18896,1.06296 -0.14175,1.08658 -0.11811,1.08659 -0.0945,1.1102 -0.0709,1.11021 -0.0236,1.13382 -0.0236,1.15745 0.0236,1.11021 0.0236,1.1102 0.0709,1.08658 0.0709,1.06297 0.0945,1.06296 0.14172,1.03934 0.14173,1.01572 0.16537,1.01573 0.2126,0.9921 0.21258,0.96848 0.23623,0.96847 0.25986,0.94484 0.28345,0.92124 0.30709,0.92124 0.35434,0.8976 0.35432,0.87401 0.37795,0.85037 0.40157,0.85036 0.42521,0.85037 0.44882,0.80313 0.4488,0.80313 0.49608,0.7795 0.51967,0.75589 0.54333,0.75587 0.5669,0.73226 0.56694,0.73228 0.61417,0.68502 0.6378,0.68503 0.63779,0.685 0.68504,0.63778 0.70866,0.63779 0.70867,0.63776 0.75589,0.59056 0.75592,0.59052 0.77952,0.56691 0.80315,0.56691 0.82677,0.51968 0.85039,0.51967 0.85041,0.47243 0.87401,0.47241 0.89764,0.44882 0.92125,0.4488 0.94488,0.40157 0.94488,0.40156 0.99214,0.37793 0.99212,0.35433 1.01575,0.33069 1.01574,0.30708 1.063,0.3071 1.06298,0.28345 1.08664,0.25983 1.11022,0.23621 1.13387,0.2126 1.15746,0.21258 1.15749,0.18899 1.20472,0.14172 1.20474,0.16534 1.20472,0.11812 1.25196,0.0945 1.2756,0.0945 1.27558,0.0709 1.29922,0.0472 1.32283,0.0236 h 1.34647 1.34645 l 1.34645,-0.0472 1.32285,-0.0709 1.32284,-0.0945 1.32282,-0.11812 1.29921,-0.16534 1.29921,-0.16537 1.29923,-0.21257 1.27559,-0.23623 1.25194,-0.25984 1.27559,-0.28345 1.252,-0.30708 1.25193,-0.35431 1.252,-0.35432 1.22834,-0.40157 1.25197,-0.42518 0.11811,-0.77952 0.11812,-0.77949 0.0945,-0.77951 0.11812,-0.80314 0.0709,-0.8031 0.0945,-0.82675 0.0709,-0.82675 0.0709,-0.82675 0.0709,-0.85039 0.0472,-0.87399 0.0473,-0.89759 0.0238,-0.89763 0.0235,-0.92122 0.0235,-0.92125 v -0.96847 -0.96847 -1.60627 l -0.0709,-1.55901 -0.0945,-1.48815 -0.14171,-1.44089 -0.16537,-1.37004 -0.2126,-1.29918 -0.25986,-1.25193 -0.28345,-1.2047 -0.14171,-0.56691 -0.18901,-0.5669 -0.16534,-0.5433 -0.18897,-0.5433 -0.18897,-0.51967 -0.2126,-0.49604 -0.23623,-0.49605 -0.21259,-0.47243 -0.25983,-0.47243 -0.23623,-0.4488 -0.25986,-0.42519 -0.28345,-0.42518 -0.25986,-0.40157 -0.30708,-0.40156 -0.28346,-0.37794 -0.30709,-0.37791"
     id="path5933"
     inkscape:connector-curvature="0" />
  <path
     style="fill:#1f1a17;fill-opacity:1;fill-rule:nonzero;stroke:none;stroke-width:2.25358224"
     d="m 123.54332,172.05833 -0.28347,1.13383 -0.25984,1.15744 -0.25984,1.15745 -0.2126,1.15746 -0.2126,1.18107 -0.18898,1.18106 -0.16535,1.18107 -0.14173,1.20469 -0.14174,1.20469 -0.1181,1.22831 -0.0945,1.27556 -0.0708,1.29917 -0.0709,1.3228 -0.0236,1.34642 -0.0472,1.37004 v 1.39366 l 0.0236,2.83457 0.0237,2.7637 0.0472,2.7637 0.0709,2.71647 0.0945,2.69283 0.11811,2.6456 0.14174,2.64559 0.14173,2.59835 0.18898,2.55111 0.18897,2.55111 0.23622,2.50387 0.23622,2.48025 0.25985,2.45661 0.28346,2.4094 0.30708,2.38575 0.3071,2.36213 0.35432,2.31491 0.35434,2.29126 0.37794,2.24403 0.4252,2.2204 0.4252,2.17318 0.42519,2.12592 0.47245,2.07868 0.49606,2.05507 0.49607,2.00783 0.51968,1.98418 0.5433,1.91334 0.56694,1.88972 0.59055,1.86608 0.59055,1.81884 0.63779,1.77161 0.6378,1.72435 -0.77953,0.44883 -0.77953,0.40156 -0.73228,0.37793 -0.75591,0.35433 -0.73228,0.30707 -0.70866,0.30707 -0.70866,0.25984 -0.68504,0.2126 -0.68504,0.21258 -0.68504,0.18899 -0.66141,0.14173 -0.68504,0.14172 -0.66142,0.0945 -0.66142,0.0708 -0.66142,0.0237 -0.63779,0.0236 -0.66142,-0.0236 -0.6378,-0.0472 -0.59055,-0.11811 -0.56693,-0.14173 -0.25984,-0.0709 -0.25984,-0.0945 -0.25985,-0.0945 -0.23622,-0.11811 -0.21259,-0.14173 -0.23623,-0.1181 -0.21259,-0.14173 -0.18898,-0.16535 -0.18897,-0.16535 -0.18898,-0.16534 -0.16536,-0.18898 -0.18898,-0.18897 -0.16535,-0.2126 -0.14173,-0.2362 -0.16536,-0.23622 -0.14172,-0.23622 -0.28348,-0.5433 -0.23622,-0.5669 -0.21259,-0.63777 -0.18897,-0.68502 -0.0472,-0.28346 -0.0709,-0.47244 -0.0472,-0.63776 -0.0708,-0.82675 -0.0709,-0.99212 -0.0945,-1.15744 -0.0709,-1.34642 -0.0945,-1.51177 -0.0945,-1.67712 -0.0945,-1.84246 -0.0945,-2.03145 -0.11811,-2.22041 -0.11811,-2.36214 -0.11811,-2.55109 -0.11811,-2.74009 -0.11811,-2.90542 -0.14174,-2.97629 -0.14172,-2.97631 -0.14174,-2.95266 -0.16536,-2.95267 -0.14172,-2.95268 -0.16536,-2.95267 -0.18898,-2.92906 -0.16535,-2.90543 -0.18898,-2.90542 -0.18897,-2.90544 -0.2126,-2.90543 -0.18898,-2.8818 -0.2126,-2.88182 -0.23622,-2.85819 -0.2126,-2.85818 -0.23622,-2.85819 -1.70078,3.47234 -1.72441,3.51959 -1.74804,3.54321 -1.74803,3.59045 -1.74803,3.63769 -1.771654,3.66132 -1.771649,3.70855 -1.795279,3.75581 -1.79528,3.80304 -1.79527,3.82667 -1.818901,3.8739 -1.842521,3.92114 -1.842514,3.96841 -1.842522,3.99201 -1.866142,4.03925 -1.889766,4.08649 -0.661417,1.46454 -0.59055,1.32279 -0.566929,1.22831 -0.496064,1.08659 -0.448819,0.96847 -0.401575,0.85037 -0.330707,0.73227 -0.283465,0.61415 -0.307088,0.63779 -0.307085,0.59053 -0.307087,0.54329 -0.307088,0.49604 -0.307087,0.44882 -0.307085,0.40157 -0.307088,0.35431 -0.307087,0.28345 -0.307084,0.28346 -0.307088,0.2126 -0.330707,0.18896 -0.354334,0.16534 -0.35433,0.11812 -0.35433,0.0945 -0.377952,0.0472 -0.401577,0.0237 h -0.188976 l -0.188973,-0.0237 -0.188977,-0.0472 -0.212599,-0.0473 -0.188976,-0.0709 -0.188978,-0.0709 -0.212599,-0.0945 -0.188976,-0.11811 -0.188977,-0.14173 -0.212596,-0.14173 -0.188976,-0.14173 -0.212599,-0.18898 -0.401722,-0.37793 -0.401572,-0.44883 -0.401576,-0.51965 -0.401575,-0.56691 -0.401577,-0.63779 -0.425195,-0.68502 -0.401576,-0.75587 -0.425196,-0.80313 -0.401576,-0.87399 -0.425195,-0.94486 -0.35433,-0.82675 -0.330711,-0.73228 -0.307084,-0.61415 -0.236222,-0.54328 -1.299213,-2.8582 -1.299213,-2.78732 -1.251967,-2.71645 -1.228346,-2.66921 -1.204725,-2.62197 -1.181105,-2.55112 -1.157479,-2.48026 -1.133859,-2.43298 -1.086613,-2.36214 -1.086613,-2.3149 -1.062994,-2.24403 -1.015747,-2.1968 -0.992126,-2.12591 -0.968506,-2.05507 -0.968504,-2.03144 -0.92126,-1.93695 -0.897637,-1.88971 -0.874017,-1.84247 -0.850391,-1.81885 -0.826771,-1.74798 -0.826776,-1.70074 -0.803148,-1.62988 -0.779529,-1.60625 -0.755903,-1.55901 -0.732283,-1.51177 -0.708663,-1.4409 -0.708661,-1.41729 -0.661417,-1.34642 -0.661418,-1.32279 -0.637795,-1.25193 -0.614172,-1.20469 -0.614175,-1.15745 -0.141731,2.24403 -0.118111,2.29127 -0.141734,2.38576 -0.141731,2.40938 -0.141734,2.50387 -0.118108,2.55111 -0.141734,2.62197 -0.141731,2.69284 -0.118111,2.74008 -0.14173,2.81095 -0.118111,2.8818 -0.141734,2.92906 -0.118108,2.99992 -0.141734,3.04714 -0.118111,3.11803 -0.118109,3.18889 -0.141734,3.11804 -0.118108,2.97628 -0.141733,2.78732 -0.141733,2.59835 -0.141732,2.45663 -0.141732,2.29127 -0.118111,2.10229 -0.141731,1.93696 -0.165355,1.77161 -0.141732,1.60626 -0.141732,1.4409 -0.165354,1.25193 -0.141733,1.08659 -0.165354,0.92124 -0.165354,0.75587 -0.141733,0.59053 -0.188976,0.51968 -0.188977,0.49605 -0.212599,0.44881 -0.23622,0.42518 -0.259842,0.35431 -0.259843,0.35433 -0.307086,0.28346 -0.307087,0.25983 -0.354331,0.23622 -0.35433,0.18897 -0.401575,0.18896 -0.425197,0.11811 -0.472441,0.11811 -0.472441,0.0709 -0.519685,0.0472 -0.543308,0.0236 -0.425196,-0.0236 -0.472441,-0.0236 -0.472441,-0.0709 -0.496064,-0.0945 -0.543307,-0.14174 -0.543307,-0.14173 -0.590551,-0.18898 -0.590551,-0.21258 -0.637796,-0.21261 -0.637795,-0.25983 -0.68504,-0.30707 -0.685038,-0.30708 -0.732284,-0.35433 -0.755905,-0.37793 -0.779528,-0.40156 -0.803151,-0.44883 0.637797,-1.72434 0.590551,-1.77161 0.59055,-1.79523 0.590552,-1.84246 0.543307,-1.88972 0.519685,-1.93695 0.519685,-1.96058 0.496063,-2.0078 0.472441,-2.05507 0.472441,-2.10229 0.425197,-2.12595 0.425197,-2.17315 0.401575,-2.22041 0.377953,-2.24404 0.377952,-2.29127 0.330709,-2.33851 0.330709,-2.36214 0.307086,-2.40937 0.283465,-2.43302 0.259843,-2.45662 0.23622,-2.50387 0.212598,-2.52749 0.188977,-2.55111 0.188976,-2.59835 0.165355,-2.62197 0.11811,-2.66922 0.11811,-2.69284 0.09449,-2.71645 0.07086,-2.76371 0.07086,-2.78733 0.02362,-2.81094 v -2.85819 -1.37004 l -0.02362,-1.34641 -0.04724,-1.3228 -0.04724,-1.29917 -0.09449,-1.27556 -0.09449,-1.22831 -0.11811,-1.22832 -0.11811,-1.20469 -0.165354,-1.15744 -0.141733,-1.15745 -0.188976,-1.15745 -0.188977,-1.15744 -0.212598,-1.13383 -0.212599,-1.13383 -0.23622,-1.1102 -0.259843,-1.11021 0.543308,-0.49605 0.519685,-0.4488 0.496063,-0.42518 0.519685,-0.37795 0.472441,-0.35432 0.496063,-0.30708 0.448819,-0.28346 0.472441,-0.23621 0.448819,-0.21259 0.448819,-0.18897 0.448819,-0.14173 0.472441,-0.14173 0.496063,-0.0945 0.472441,-0.0709 0.496063,-0.0472 0.519685,-0.0237 0.401574,0.0472 0.401575,0.0709 0.44882,0.16535 0.448819,0.21259 0.448819,0.25985 0.472441,0.35431 0.496061,0.37794 0.519687,0.44881 0.519683,0.51967 0.543307,0.59054 0.54331,0.63777 0.566926,0.68502 0.56693,0.75589 0.614175,0.82675 0.614172,0.87399 0.614175,0.94485 0.637795,0.9921 0.661418,1.06296 0.685037,1.11021 0.685041,1.18107 0.685037,1.25193 0.732287,1.29917 0.732283,1.37005 0.732283,1.41728 0.755906,1.48814 0.779526,1.5354 0.803151,1.60625 0.803149,1.6535 1.653543,3.51959 1.724411,3.75579 0.637795,1.44091 0.637795,1.39366 0.614172,1.37004 0.614176,1.34642 0.590548,1.27556 0.56693,1.27555 0.56693,1.20469 0.543306,1.18107 0.519688,1.15745 0.519683,1.1102 0.472441,1.06296 0.496065,1.03935 0.448818,0.99209 0.448818,0.94486 0.448819,0.92124 0.401576,0.89761 0.921259,1.91333 0.850394,1.81885 0.826772,1.77159 0.803148,1.6535 0.755907,1.58263 0.70866,1.51178 0.685041,1.41727 0.661417,1.32281 0.59055,1.25193 0.590552,1.18106 0.519687,1.08659 0.519684,0.9921 0.448818,0.92123 0.448818,0.85037 0.377953,0.7559 0.354331,0.66138 0.661417,1.20469 0.590552,1.01572 0.519684,0.87401 0.496064,0.70864 0.2126,0.28345 0.188976,0.25984 0.188976,0.21258 0.165355,0.18899 0.165353,0.11809 0.141731,0.1181 0.118111,0.0473 0.118111,0.0236 0.118111,-0.0473 0.165354,-0.0945 0.188976,-0.16534 0.188977,-0.23623 0.236219,-0.30707 0.259842,-0.37794 0.307087,-0.44881 0.307088,-0.51967 0.732283,-1.22832 0.826771,-1.48815 0.944883,-1.79523 1.062991,-2.03142 1.157481,-2.33852 1.299213,-2.59836 1.370078,-2.8582 1.511812,-3.14162 1.629922,-3.42511 1.724408,-3.68494 1.842521,-3.96838 1.937007,-4.25185 0.826776,-1.77161 0.803146,-1.72436 0.779525,-1.70074 0.755912,-1.62988 0.732283,-1.60625 0.708662,-1.53539 0.708661,-1.51177 0.661419,-1.46452 0.661419,-1.41729 0.63779,-1.37004 0.614177,-1.32279 0.590547,-1.27556 0.56694,-1.25193 0.5433,-1.18107 0.51969,-1.15745 0.51968,-1.1102 1.063,-2.24404 1.01574,-2.07867 0.51968,-0.9921 0.49607,-0.94486 0.47244,-0.89761 0.49607,-0.85038 0.47244,-0.80312 0.44881,-0.7795 0.47244,-0.73227 0.44882,-0.68502 0.4252,-0.63778 0.4252,-0.61416 0.4252,-0.5669 0.4252,-0.51968 0.40157,-0.47242 0.42519,-0.44881 0.40158,-0.42519 0.40157,-0.40156 0.4252,-0.35432 0.40158,-0.30708 0.40157,-0.30707 0.42519,-0.25985 0.40158,-0.23621 0.40158,-0.21259 0.42519,-0.16535 0.40158,-0.14172 0.40157,-0.11811 0.4252,-0.0709 0.40158,-0.0472 0.40157,-0.0237 0.47244,0.0237 0.47244,0.0472 0.47244,0.0709 0.47244,0.0945 0.44882,0.14173 0.44882,0.14173 0.47244,0.18897 0.44882,0.21259 0.44882,0.23622 0.47244,0.28345 0.47244,0.30708 0.49607,0.35433 0.51968,0.37794 0.5433,0.42518 0.54332,0.44881 0.56692,0.49606"
     id="path5935"
     inkscape:connector-curvature="0" />
</svg>
